<svg xmlns="http://www.w3.org/2000/svg" xmlns:xlink="http://www.w3.org/1999/xlink" contentStyleType="text/css" data-diagram-type="CLASS" height="865px" preserveAspectRatio="none" style="width:4229px;height:865px;background:#FFFFFF;" version="1.1" viewBox="0 0 4229 865" width="4229px" zoomAndPan="magnify"><title>Versatile Visions - Class-style UML with API + External Systems</title><defs/><g><g class="title" data-source-line="2"><text fill="#000000" font-family="sans-serif" font-size="14" font-weight="bold" lengthAdjust="spacing" textLength="501.7988" x="1857.0521" y="22.9951">Versatile Visions - Class-style UML with API + External Systems</text></g><!--cluster REST API (Controllers)--><g class="cluster" data-entity="REST API .Controllers." data-source-line="14" data-uid="ent0003" id="cluster_REST API .Controllers."><path d="M895.43,272.8169 L1072.6605,272.8169 A3.75,3.75 0 0 1 1075.1605,275.3169 L1082.1605,295.1138 L2604.43,295.1138 A2.5,2.5 0 0 1 2606.93,297.6138 L2606.93,434.5069 A2.5,2.5 0 0 1 2604.43,437.0069 L895.43,437.0069 A2.5,2.5 0 0 1 892.93,434.5069 L892.93,275.3169 A2.5,2.5 0 0 1 895.43,272.8169" fill="none" style="stroke:#000000;stroke-width:1.5;"/><line style="stroke:#000000;stroke-width:1.5;" x1="892.93" x2="1082.1605" y1="295.1138" y2="295.1138"/><text fill="#000000" font-family="sans-serif" font-size="14" font-weight="bold" lengthAdjust="spacing" textLength="176.2305" x="896.93" y="287.812">REST API (Controllers)</text></g><!--class AuthAPI--><g class="entity" data-entity="AuthAPI" data-source-line="15" data-uid="ent0004" id="entity_AuthAPI"><rect fill="#F1F1F1" height="113.1875" rx="2.5" ry="2.5" style="stroke:#181818;stroke-width:0.5;" width="188.3125" x="908.77" y="307.8169"/><ellipse cx="971.1958" cy="323.8169" fill="#ADD1B2" rx="11" ry="11" style="stroke:#181818;stroke-width:1;"/><path d="M974.1645,329.4575 Q973.5864,329.7544 972.9458,329.895 Q972.3052,330.0513 971.602,330.0513 Q969.102,330.0513 967.7739,328.4106 Q966.4614,326.7544 966.4614,323.6294 Q966.4614,320.5044 967.7739,318.8481 Q969.102,317.1919 971.602,317.1919 Q972.3052,317.1919 972.9458,317.3481 Q973.602,317.5044 974.1645,317.8013 L974.1645,320.52 Q973.5395,319.9419 972.9458,319.6763 Q972.352,319.395 971.727,319.395 Q970.3833,319.395 969.6958,320.4731 Q969.0083,321.5356 969.0083,323.6294 Q969.0083,325.7231 969.6958,326.8013 Q970.3833,327.8638 971.727,327.8638 Q972.352,327.8638 972.9458,327.5981 Q973.5395,327.3169 974.1645,326.7388 L974.1645,329.4575 Z " fill="#000000"/><text fill="#000000" font-family="sans-serif" font-size="14" lengthAdjust="spacing" textLength="54.9609" x="991.6958" y="328.6636">AuthAPI</text><line style="stroke:#181818;stroke-width:0.5;" x1="909.77" x2="1096.0825" y1="339.8169" y2="339.8169"/><line style="stroke:#181818;stroke-width:0.5;" x1="909.77" x2="1096.0825" y1="347.8169" y2="347.8169"/><text fill="#000000" font-family="sans-serif" font-size="14" lengthAdjust="spacing" textLength="175.1094" x="914.77" y="364.812">+POST /login(email,pwd)</text><text fill="#000000" font-family="sans-serif" font-size="14" lengthAdjust="spacing" textLength="176.3125" x="914.77" y="381.1089">+POST /signup(userDTO)</text><text fill="#000000" font-family="sans-serif" font-size="14" lengthAdjust="spacing" textLength="153.918" x="914.77" y="397.4057">+POST /sso/callback()</text><text fill="#000000" font-family="sans-serif" font-size="14" lengthAdjust="spacing" textLength="112.9912" x="914.77" y="413.7026">+POST /logout()</text></g><!--class ProfileAPI--><g class="entity" data-entity="ProfileAPI" data-source-line="21" data-uid="ent0005" id="entity_ProfileAPI"><rect fill="#F1F1F1" height="96.8906" rx="2.5" ry="2.5" style="stroke:#181818;stroke-width:0.5;" width="205.252" x="1613.3" y="315.9669"/><ellipse cx="1678.5593" cy="331.9669" fill="#ADD1B2" rx="11" ry="11" style="stroke:#181818;stroke-width:1;"/><path d="M1681.528,337.6075 Q1680.9499,337.9044 1680.3093,338.045 Q1679.6687,338.2012 1678.9655,338.2012 Q1676.4655,338.2012 1675.1374,336.5606 Q1673.8249,334.9044 1673.8249,331.7794 Q1673.8249,328.6544 1675.1374,326.9981 Q1676.4655,325.3419 1678.9655,325.3419 Q1679.6687,325.3419 1680.3093,325.4981 Q1680.9655,325.6544 1681.528,325.9512 L1681.528,328.67 Q1680.903,328.0919 1680.3093,327.8262 Q1679.7155,327.545 1679.0905,327.545 Q1677.7468,327.545 1677.0593,328.6231 Q1676.3718,329.6856 1676.3718,331.7794 Q1676.3718,333.8731 1677.0593,334.9512 Q1677.7468,336.0137 1679.0905,336.0137 Q1679.7155,336.0137 1680.3093,335.7481 Q1680.903,335.4669 1681.528,334.8887 L1681.528,337.6075 Z " fill="#000000"/><text fill="#000000" font-family="sans-serif" font-size="14" lengthAdjust="spacing" textLength="66.2334" x="1699.0593" y="336.8136">ProfileAPI</text><line style="stroke:#181818;stroke-width:0.5;" x1="1614.3" x2="1817.552" y1="347.9669" y2="347.9669"/><text fill="#000000" font-family="sans-serif" font-size="14" lengthAdjust="spacing" textLength="122.2813" x="1619.3" y="364.962">+GET /users/{id}</text><text fill="#000000" font-family="sans-serif" font-size="14" lengthAdjust="spacing" textLength="135.2695" x="1619.3" y="381.2589">+PUT /profiles/{id}</text><text fill="#000000" font-family="sans-serif" font-size="14" lengthAdjust="spacing" textLength="193.252" x="1619.3" y="397.5557">+POST /profiles/{id}/media</text><line style="stroke:#181818;stroke-width:0.5;" x1="1614.3" x2="1817.552" y1="404.8575" y2="404.8575"/></g><!--class CastingAPI--><g class="entity" data-entity="CastingAPI" data-source-line="26" data-uid="ent0006" id="entity_CastingAPI"><rect fill="#F1F1F1" height="96.8906" rx="2.5" ry="2.5" style="stroke:#181818;stroke-width:0.5;" width="154.4541" x="2135.7" y="315.9669"/><ellipse cx="2172.0833" cy="331.9669" fill="#ADD1B2" rx="11" ry="11" style="stroke:#181818;stroke-width:1;"/><path d="M2175.0521,337.6075 Q2174.474,337.9044 2173.8333,338.045 Q2173.1927,338.2012 2172.4896,338.2012 Q2169.9896,338.2012 2168.6615,336.5606 Q2167.349,334.9044 2167.349,331.7794 Q2167.349,328.6544 2168.6615,326.9981 Q2169.9896,325.3419 2172.4896,325.3419 Q2173.1927,325.3419 2173.8333,325.4981 Q2174.4896,325.6544 2175.0521,325.9512 L2175.0521,328.67 Q2174.4271,328.0919 2173.8333,327.8262 Q2173.2396,327.545 2172.6146,327.545 Q2171.2708,327.545 2170.5833,328.6231 Q2169.8958,329.6856 2169.8958,331.7794 Q2169.8958,333.8731 2170.5833,334.9512 Q2171.2708,336.0137 2172.6146,336.0137 Q2173.2396,336.0137 2173.8333,335.7481 Q2174.4271,335.4669 2175.0521,334.8887 L2175.0521,337.6075 Z " fill="#000000"/><text fill="#000000" font-family="sans-serif" font-size="14" lengthAdjust="spacing" textLength="74.9355" x="2190.8352" y="336.8136">CastingAPI</text><line style="stroke:#181818;stroke-width:0.5;" x1="2136.7" x2="2289.1541" y1="347.9669" y2="347.9669"/><text fill="#000000" font-family="sans-serif" font-size="14" lengthAdjust="spacing" textLength="107.1465" x="2141.7" y="364.962">+GET /castings</text><text fill="#000000" font-family="sans-serif" font-size="14" lengthAdjust="spacing" textLength="115.8008" x="2141.7" y="381.2589">+POST /castings</text><text fill="#000000" font-family="sans-serif" font-size="14" lengthAdjust="spacing" textLength="142.4541" x="2141.7" y="397.5557">+GET /castings/{id}</text><line style="stroke:#181818;stroke-width:0.5;" x1="2136.7" x2="2289.1541" y1="404.8575" y2="404.8575"/></g><!--class ApplicationAPI--><g class="entity" data-entity="ApplicationAPI" data-source-line="31" data-uid="ent0007" id="entity_ApplicationAPI"><rect fill="#F1F1F1" height="80.5938" rx="2.5" ry="2.5" style="stroke:#181818;stroke-width:0.5;" width="247.334" x="1853.26" y="324.1169"/><ellipse cx="1922.491" cy="340.1169" fill="#ADD1B2" rx="11" ry="11" style="stroke:#181818;stroke-width:1;"/><path d="M1925.4597,345.7575 Q1924.8816,346.0544 1924.241,346.195 Q1923.6003,346.3512 1922.8972,346.3512 Q1920.3972,346.3512 1919.0691,344.7106 Q1917.7566,343.0544 1917.7566,339.9294 Q1917.7566,336.8044 1919.0691,335.1481 Q1920.3972,333.4919 1922.8972,333.4919 Q1923.6003,333.4919 1924.241,333.6481 Q1924.8972,333.8044 1925.4597,334.1012 L1925.4597,336.82 Q1924.8347,336.2419 1924.241,335.9762 Q1923.6472,335.695 1923.0222,335.695 Q1921.6785,335.695 1920.991,336.7731 Q1920.3035,337.8356 1920.3035,339.9294 Q1920.3035,342.0231 1920.991,343.1012 Q1921.6785,344.1637 1923.0222,344.1637 Q1923.6472,344.1637 1924.241,343.8981 Q1924.8347,343.6169 1925.4597,343.0387 L1925.4597,345.7575 Z " fill="#000000"/><text fill="#000000" font-family="sans-serif" font-size="14" lengthAdjust="spacing" textLength="100.3721" x="1942.991" y="344.9636">ApplicationAPI</text><line style="stroke:#181818;stroke-width:0.5;" x1="1854.26" x2="2099.594" y1="356.1169" y2="356.1169"/><text fill="#000000" font-family="sans-serif" font-size="14" lengthAdjust="spacing" textLength="142.3174" x="1859.26" y="373.112">+POST /applications</text><text fill="#000000" font-family="sans-serif" font-size="14" lengthAdjust="spacing" textLength="235.334" x="1859.26" y="389.4089">+PATCH /applications/{id}/status</text><line style="stroke:#181818;stroke-width:0.5;" x1="1854.26" x2="2099.594" y1="396.7106" y2="396.7106"/></g><!--class BookingAPI--><g class="entity" data-entity="BookingAPI" data-source-line="35" data-uid="ent0008" id="entity_BookingAPI"><rect fill="#F1F1F1" height="96.8906" rx="2.5" ry="2.5" style="stroke:#181818;stroke-width:0.5;" width="178.1475" x="1131.85" y="315.9669"/><ellipse cx="1177.3534" cy="331.9669" fill="#ADD1B2" rx="11" ry="11" style="stroke:#181818;stroke-width:1;"/><path d="M1180.3222,337.6075 Q1179.744,337.9044 1179.1034,338.045 Q1178.4628,338.2012 1177.7597,338.2012 Q1175.2597,338.2012 1173.9315,336.5606 Q1172.619,334.9044 1172.619,331.7794 Q1172.619,328.6544 1173.9315,326.9981 Q1175.2597,325.3419 1177.7597,325.3419 Q1178.4628,325.3419 1179.1034,325.4981 Q1179.7597,325.6544 1180.3222,325.9512 L1180.3222,328.67 Q1179.6972,328.0919 1179.1034,327.8262 Q1178.5097,327.545 1177.8847,327.545 Q1176.5409,327.545 1175.8534,328.6231 Q1175.1659,329.6856 1175.1659,331.7794 Q1175.1659,333.8731 1175.8534,334.9512 Q1176.5409,336.0137 1177.8847,336.0137 Q1178.5097,336.0137 1179.1034,335.7481 Q1179.6972,335.4669 1180.3222,334.8887 L1180.3222,337.6075 Z " fill="#000000"/><text fill="#000000" font-family="sans-serif" font-size="14" lengthAdjust="spacing" textLength="78.6406" x="1197.8534" y="336.8136">BookingAPI</text><line style="stroke:#181818;stroke-width:0.5;" x1="1132.85" x2="1308.9975" y1="347.9669" y2="347.9669"/><text fill="#000000" font-family="sans-serif" font-size="14" lengthAdjust="spacing" textLength="120.8662" x="1137.85" y="364.962">+POST /bookings</text><text fill="#000000" font-family="sans-serif" font-size="14" lengthAdjust="spacing" textLength="166.1475" x="1137.85" y="381.2589">+PATCH /bookings/{id}</text><text fill="#000000" font-family="sans-serif" font-size="14" lengthAdjust="spacing" textLength="127.4561" x="1137.85" y="397.5557">+POST /payments</text><line style="stroke:#181818;stroke-width:0.5;" x1="1132.85" x2="1308.9975" y1="404.8575" y2="404.8575"/></g><!--class MessagingAPI--><g class="entity" data-entity="MessagingAPI" data-source-line="40" data-uid="ent0009" id="entity_MessagingAPI"><rect fill="#F1F1F1" height="80.5938" rx="2.5" ry="2.5" style="stroke:#181818;stroke-width:0.5;" width="233.5254" x="1345.16" y="324.1169"/><ellipse cx="1409.4007" cy="340.1169" fill="#ADD1B2" rx="11" ry="11" style="stroke:#181818;stroke-width:1;"/><path d="M1412.3695,345.7575 Q1411.7913,346.0544 1411.1507,346.195 Q1410.5101,346.3512 1409.807,346.3512 Q1407.307,346.3512 1405.9788,344.7106 Q1404.6663,343.0544 1404.6663,339.9294 Q1404.6663,336.8044 1405.9788,335.1481 Q1407.307,333.4919 1409.807,333.4919 Q1410.5101,333.4919 1411.1507,333.6481 Q1411.807,333.8044 1412.3695,334.1012 L1412.3695,336.82 Q1411.7445,336.2419 1411.1507,335.9762 Q1410.557,335.695 1409.932,335.695 Q1408.5882,335.695 1407.9007,336.7731 Q1407.2132,337.8356 1407.2132,339.9294 Q1407.2132,342.0231 1407.9007,343.1012 Q1408.5882,344.1637 1409.932,344.1637 Q1410.557,344.1637 1411.1507,343.8981 Q1411.7445,343.6169 1412.3695,343.0387 L1412.3695,345.7575 Z " fill="#000000"/><text fill="#000000" font-family="sans-serif" font-size="14" lengthAdjust="spacing" textLength="96.5439" x="1429.9007" y="344.9636">MessagingAPI</text><line style="stroke:#181818;stroke-width:0.5;" x1="1346.16" x2="1577.6854" y1="356.1169" y2="356.1169"/><text fill="#000000" font-family="sans-serif" font-size="14" lengthAdjust="spacing" textLength="137.9424" x="1351.16" y="373.112">+GET /threads/{id}</text><text fill="#000000" font-family="sans-serif" font-size="14" lengthAdjust="spacing" textLength="221.5254" x="1351.16" y="389.4089">+POST /threads/{id}/messages</text><line style="stroke:#181818;stroke-width:0.5;" x1="1346.16" x2="1577.6854" y1="396.7106" y2="396.7106"/></g><!--class AdminAPI--><g class="entity" data-entity="AdminAPI" data-source-line="44" data-uid="ent0010" id="entity_AdminAPI"><rect fill="#F1F1F1" height="96.8906" rx="2.5" ry="2.5" style="stroke:#181818;stroke-width:0.5;" width="266.2559" x="2324.8" y="315.9669"/><ellipse cx="2420.1716" cy="331.9669" fill="#ADD1B2" rx="11" ry="11" style="stroke:#181818;stroke-width:1;"/><path d="M2423.1403,337.6075 Q2422.5622,337.9044 2421.9216,338.045 Q2421.281,338.2012 2420.5778,338.2012 Q2418.0778,338.2012 2416.7497,336.5606 Q2415.4372,334.9044 2415.4372,331.7794 Q2415.4372,328.6544 2416.7497,326.9981 Q2418.0778,325.3419 2420.5778,325.3419 Q2421.281,325.3419 2421.9216,325.4981 Q2422.5778,325.6544 2423.1403,325.9512 L2423.1403,328.67 Q2422.5153,328.0919 2421.9216,327.8262 Q2421.3278,327.545 2420.7028,327.545 Q2419.3591,327.545 2418.6716,328.6231 Q2417.9841,329.6856 2417.9841,331.7794 Q2417.9841,333.8731 2418.6716,334.9512 Q2419.3591,336.0137 2420.7028,336.0137 Q2421.3278,336.0137 2421.9216,335.7481 Q2422.5153,335.4669 2423.1403,334.8887 L2423.1403,337.6075 Z " fill="#000000"/><text fill="#000000" font-family="sans-serif" font-size="14" lengthAdjust="spacing" textLength="67.0127" x="2440.6716" y="336.8136">AdminAPI</text><line style="stroke:#181818;stroke-width:0.5;" x1="2325.8" x2="2590.0559" y1="347.9669" y2="347.9669"/><text fill="#000000" font-family="sans-serif" font-size="14" lengthAdjust="spacing" textLength="243.8721" x="2330.8" y="364.962">+GET /admin/applications/pending</text><text fill="#000000" font-family="sans-serif" font-size="14" lengthAdjust="spacing" textLength="254.2559" x="2330.8" y="381.2589">+POST /admin/verifyModel/{userId}</text><text fill="#000000" font-family="sans-serif" font-size="14" lengthAdjust="spacing" textLength="250.708" x="2330.8" y="397.5557">+POST /admin/moderate/{entityId}</text><line style="stroke:#181818;stroke-width:0.5;" x1="2325.8" x2="2590.0559" y1="404.8575" y2="404.8575"/></g><!--class AndroidApp--><g class="entity" data-entity="AndroidApp" data-source-line="5" data-uid="ent0002" id="entity_AndroidApp"><rect fill="#F1F1F1" height="129.4844" rx="2.5" ry="2.5" style="stroke:#181818;stroke-width:0.5;" width="153.0117" x="1480.42" y="60.5869"/><ellipse cx="1513.072" cy="76.5869" fill="#ADD1B2" rx="11" ry="11" style="stroke:#181818;stroke-width:1;"/><path d="M1516.0407,82.2275 Q1515.4626,82.5244 1514.822,82.665 Q1514.1813,82.8212 1513.4782,82.8212 Q1510.9782,82.8212 1509.6501,81.1806 Q1508.3376,79.5244 1508.3376,76.3994 Q1508.3376,73.2744 1509.6501,71.6181 Q1510.9782,69.9619 1513.4782,69.9619 Q1514.1813,69.9619 1514.822,70.1181 Q1515.4782,70.2744 1516.0407,70.5712 L1516.0407,73.29 Q1515.4157,72.7119 1514.822,72.4462 Q1514.2282,72.165 1513.6032,72.165 Q1512.2595,72.165 1511.572,73.2431 Q1510.8845,74.3056 1510.8845,76.3994 Q1510.8845,78.4931 1511.572,79.5712 Q1512.2595,80.6337 1513.6032,80.6337 Q1514.2282,80.6337 1514.822,80.3681 Q1515.4157,80.0869 1516.0407,79.5087 L1516.0407,82.2275 Z " fill="#000000"/><text fill="#000000" font-family="sans-serif" font-size="14" lengthAdjust="spacing" textLength="81.7852" x="1530.9946" y="81.4336">AndroidApp</text><line style="stroke:#181818;stroke-width:0.5;" x1="1481.42" x2="1632.4317" y1="92.5869" y2="92.5869"/><line style="stroke:#181818;stroke-width:0.5;" x1="1481.42" x2="1632.4317" y1="100.5869" y2="100.5869"/><text fill="#000000" font-family="sans-serif" font-size="14" lengthAdjust="spacing" textLength="126.0068" x="1486.42" y="117.582">+browseCasting()</text><text fill="#000000" font-family="sans-serif" font-size="14" lengthAdjust="spacing" textLength="141.0117" x="1486.42" y="133.8789">+viewModelProfile()</text><text fill="#000000" font-family="sans-serif" font-size="14" lengthAdjust="spacing" textLength="131.0859" x="1486.42" y="150.1757">+applyToCasting()</text><text fill="#000000" font-family="sans-serif" font-size="14" lengthAdjust="spacing" textLength="53.293" x="1486.42" y="166.4726">+chat()</text><text fill="#000000" font-family="sans-serif" font-size="14" lengthAdjust="spacing" textLength="126.1094" x="1486.42" y="182.7695">+acceptBooking()</text></g><!--class AuthenticationService--><g class="entity" data-entity="AuthenticationService" data-source-line="52" data-uid="ent0011" id="entity_AuthenticationService"><rect fill="#F1F1F1" height="96.8906" rx="2.5" ry="2.5" style="stroke:#181818;stroke-width:0.5;" width="327.8545" x="7" y="514.5969"/><ellipse cx="89.4209" cy="530.5969" fill="#ADD1B2" rx="11" ry="11" style="stroke:#181818;stroke-width:1;"/><path d="M92.3896,536.2375 Q91.8115,536.5344 91.1709,536.675 Q90.5303,536.8313 89.8271,536.8313 Q87.3271,536.8313 85.999,535.1906 Q84.6865,533.5344 84.6865,530.4094 Q84.6865,527.2844 85.999,525.6281 Q87.3271,523.9719 89.8271,523.9719 Q90.5303,523.9719 91.1709,524.1281 Q91.8271,524.2844 92.3896,524.5813 L92.3896,527.3 Q91.7646,526.7219 91.1709,526.4563 Q90.5771,526.175 89.9521,526.175 Q88.6084,526.175 87.9209,527.2531 Q87.2334,528.3156 87.2334,530.4094 Q87.2334,532.5031 87.9209,533.5813 Q88.6084,534.6438 89.9521,534.6438 Q90.5771,534.6438 91.1709,534.3781 Q91.7646,534.0969 92.3896,533.5188 L92.3896,536.2375 Z " fill="#000000"/><text fill="#000000" font-family="sans-serif" font-size="14" lengthAdjust="spacing" textLength="154.5127" x="109.9209" y="535.4436">AuthenticationService</text><line style="stroke:#181818;stroke-width:0.5;" x1="8" x2="333.8545" y1="546.5969" y2="546.5969"/><line style="stroke:#181818;stroke-width:0.5;" x1="8" x2="333.8545" y1="554.5969" y2="554.5969"/><text fill="#000000" font-family="sans-serif" font-size="14" lengthAdjust="spacing" textLength="315.8545" x="13" y="571.592">+login(email:String, password:String): Token</text><text fill="#000000" font-family="sans-serif" font-size="14" lengthAdjust="spacing" textLength="243.0518" x="13" y="587.8889">+signup(userDetails: JSON): String</text><text fill="#000000" font-family="sans-serif" font-size="14" lengthAdjust="spacing" textLength="257.9131" x="13" y="604.1857">+getCurrentUser(token:String): User</text></g><!--class UserService--><g class="entity" data-entity="UserService" data-source-line="57" data-uid="ent0012" id="entity_UserService"><rect fill="#F1F1F1" height="80.5938" rx="2.5" ry="2.5" style="stroke:#181818;stroke-width:0.5;" width="293.292" x="1519.28" y="522.7469"/><ellipse cx="1619.8503" cy="538.7469" fill="#ADD1B2" rx="11" ry="11" style="stroke:#181818;stroke-width:1;"/><path d="M1622.8191,544.3875 Q1622.2409,544.6844 1621.6003,544.825 Q1620.9597,544.9812 1620.2566,544.9812 Q1617.7566,544.9812 1616.4284,543.3406 Q1615.1159,541.6844 1615.1159,538.5594 Q1615.1159,535.4344 1616.4284,533.7781 Q1617.7566,532.1219 1620.2566,532.1219 Q1620.9597,532.1219 1621.6003,532.2781 Q1622.2566,532.4344 1622.8191,532.7312 L1622.8191,535.45 Q1622.1941,534.8719 1621.6003,534.6062 Q1621.0066,534.325 1620.3816,534.325 Q1619.0378,534.325 1618.3503,535.4031 Q1617.6628,536.4656 1617.6628,538.5594 Q1617.6628,540.6531 1618.3503,541.7312 Q1619.0378,542.7937 1620.3816,542.7937 Q1621.0066,542.7937 1621.6003,542.5281 Q1622.1941,542.2469 1622.8191,541.6687 L1622.8191,544.3875 Z " fill="#000000"/><text fill="#000000" font-family="sans-serif" font-size="14" lengthAdjust="spacing" textLength="83.6514" x="1640.3503" y="543.5936">UserService</text><line style="stroke:#181818;stroke-width:0.5;" x1="1520.28" x2="1811.572" y1="554.7469" y2="554.7469"/><line style="stroke:#181818;stroke-width:0.5;" x1="1520.28" x2="1811.572" y1="562.7469" y2="562.7469"/><text fill="#000000" font-family="sans-serif" font-size="14" lengthAdjust="spacing" textLength="171.5273" x="1525.28" y="579.742">+getUser(id:UUID): User</text><text fill="#000000" font-family="sans-serif" font-size="14" lengthAdjust="spacing" textLength="281.292" x="1525.28" y="596.0389">+updateSettings(id:UUID, settings:Map)</text></g><!--class ProfileService--><g class="entity" data-entity="ProfileService" data-source-line="61" data-uid="ent0013" id="entity_ProfileService"><rect fill="#F1F1F1" height="80.5938" rx="2.5" ry="2.5" style="stroke:#181818;stroke-width:0.5;" width="356.0049" x="1847.92" y="522.7469"/><ellipse cx="1973.7594" cy="538.7469" fill="#ADD1B2" rx="11" ry="11" style="stroke:#181818;stroke-width:1;"/><path d="M1976.7281,544.3875 Q1976.15,544.6844 1975.5094,544.825 Q1974.8687,544.9812 1974.1656,544.9812 Q1971.6656,544.9812 1970.3375,543.3406 Q1969.025,541.6844 1969.025,538.5594 Q1969.025,535.4344 1970.3375,533.7781 Q1971.6656,532.1219 1974.1656,532.1219 Q1974.8687,532.1219 1975.5094,532.2781 Q1976.1656,532.4344 1976.7281,532.7312 L1976.7281,535.45 Q1976.1031,534.8719 1975.5094,534.6062 Q1974.9156,534.325 1974.2906,534.325 Q1972.9469,534.325 1972.2594,535.4031 Q1971.5719,536.4656 1971.5719,538.5594 Q1971.5719,540.6531 1972.2594,541.7312 Q1972.9469,542.7937 1974.2906,542.7937 Q1974.9156,542.7937 1975.5094,542.5281 Q1976.1031,542.2469 1976.7281,541.6687 L1976.7281,544.3875 Z " fill="#000000"/><text fill="#000000" font-family="sans-serif" font-size="14" lengthAdjust="spacing" textLength="95.8262" x="1994.2594" y="543.5936">ProfileService</text><line style="stroke:#181818;stroke-width:0.5;" x1="1848.92" x2="2202.9249" y1="554.7469" y2="554.7469"/><line style="stroke:#181818;stroke-width:0.5;" x1="1848.92" x2="2202.9249" y1="562.7469" y2="562.7469"/><text fill="#000000" font-family="sans-serif" font-size="14" lengthAdjust="spacing" textLength="344.0049" x="1853.92" y="579.742">+updateProfile(userId:UUID, profile:ModelProfile)</text><text fill="#000000" font-family="sans-serif" font-size="14" lengthAdjust="spacing" textLength="309.9824" x="1853.92" y="596.0389">+uploadMedia(userId:UUID, file:Media): URL</text></g><!--class CastingService--><g class="entity" data-entity="CastingService" data-source-line="65" data-uid="ent0014" id="entity_CastingService"><rect fill="#F1F1F1" height="96.8906" rx="2.5" ry="2.5" style="stroke:#181818;stroke-width:0.5;" width="411.5947" x="2688.13" y="514.5969"/><ellipse cx="2837.4132" cy="530.5969" fill="#ADD1B2" rx="11" ry="11" style="stroke:#181818;stroke-width:1;"/><path d="M2840.382,536.2375 Q2839.8038,536.5344 2839.1632,536.675 Q2838.5226,536.8313 2837.8195,536.8313 Q2835.3195,536.8313 2833.9913,535.1906 Q2832.6788,533.5344 2832.6788,530.4094 Q2832.6788,527.2844 2833.9913,525.6281 Q2835.3195,523.9719 2837.8195,523.9719 Q2838.5226,523.9719 2839.1632,524.1281 Q2839.8195,524.2844 2840.382,524.5813 L2840.382,527.3 Q2839.757,526.7219 2839.1632,526.4563 Q2838.5695,526.175 2837.9445,526.175 Q2836.6007,526.175 2835.9132,527.2531 Q2835.2257,528.3156 2835.2257,530.4094 Q2835.2257,532.5031 2835.9132,533.5813 Q2836.6007,534.6438 2837.9445,534.6438 Q2838.5695,534.6438 2839.1632,534.3781 Q2839.757,534.0969 2840.382,533.5188 L2840.382,536.2375 Z " fill="#000000"/><text fill="#000000" font-family="sans-serif" font-size="14" lengthAdjust="spacing" textLength="104.5283" x="2857.9132" y="535.4436">CastingService</text><line style="stroke:#181818;stroke-width:0.5;" x1="2689.13" x2="3098.7247" y1="546.5969" y2="546.5969"/><line style="stroke:#181818;stroke-width:0.5;" x1="2689.13" x2="3098.7247" y1="554.5969" y2="554.5969"/><text fill="#000000" font-family="sans-serif" font-size="14" lengthAdjust="spacing" textLength="306.1475" x="2694.13" y="571.592">+listCastings(filter:Map): List&lt;CastingCall&gt;</text><text fill="#000000" font-family="sans-serif" font-size="14" lengthAdjust="spacing" textLength="399.5947" x="2694.13" y="587.8889">+createCasting(clientId:UUID, casting:CastingCall): UUID</text><text fill="#000000" font-family="sans-serif" font-size="14" lengthAdjust="spacing" textLength="239.415" x="2694.13" y="604.1857">+getCasting(id:UUID): CastingCall</text></g><!--class ApplicationService--><g class="entity" data-entity="ApplicationService" data-source-line="70" data-uid="ent0015" id="entity_ApplicationService"><rect fill="#F1F1F1" height="80.5938" rx="2.5" ry="2.5" style="stroke:#181818;stroke-width:0.5;" width="414.9922" x="2238.43" y="522.7469"/><ellipse cx="2376.6937" cy="538.7469" fill="#ADD1B2" rx="11" ry="11" style="stroke:#181818;stroke-width:1;"/><path d="M2379.6624,544.3875 Q2379.0843,544.6844 2378.4437,544.825 Q2377.803,544.9812 2377.0999,544.9812 Q2374.5999,544.9812 2373.2718,543.3406 Q2371.9593,541.6844 2371.9593,538.5594 Q2371.9593,535.4344 2373.2718,533.7781 Q2374.5999,532.1219 2377.0999,532.1219 Q2377.803,532.1219 2378.4437,532.2781 Q2379.0999,532.4344 2379.6624,532.7312 L2379.6624,535.45 Q2379.0374,534.8719 2378.4437,534.6062 Q2377.8499,534.325 2377.2249,534.325 Q2375.8812,534.325 2375.1937,535.4031 Q2374.5062,536.4656 2374.5062,538.5594 Q2374.5062,540.6531 2375.1937,541.7312 Q2375.8812,542.7937 2377.2249,542.7937 Q2377.8499,542.7937 2378.4437,542.5281 Q2379.0374,542.2469 2379.6624,541.6687 L2379.6624,544.3875 Z " fill="#000000"/><text fill="#000000" font-family="sans-serif" font-size="14" lengthAdjust="spacing" textLength="129.9648" x="2397.1937" y="543.5936">ApplicationService</text><line style="stroke:#181818;stroke-width:0.5;" x1="2239.43" x2="2652.4222" y1="554.7469" y2="554.7469"/><line style="stroke:#181818;stroke-width:0.5;" x1="2239.43" x2="2652.4222" y1="562.7469" y2="562.7469"/><text fill="#000000" font-family="sans-serif" font-size="14" lengthAdjust="spacing" textLength="402.9922" x="2244.43" y="579.742">+submitApplication(modelId:UUID, castingId:UUID): UUID</text><text fill="#000000" font-family="sans-serif" font-size="14" lengthAdjust="spacing" textLength="266.5674" x="2244.43" y="596.0389">+setStatus(appId:UUID, status:String)</text></g><!--class BookingService--><g class="entity" data-entity="BookingService" data-source-line="74" data-uid="ent0016" id="entity_BookingService"><rect fill="#F1F1F1" height="96.8906" rx="2.5" ry="2.5" style="stroke:#181818;stroke-width:0.5;" width="473.8906" x="369.98" y="514.5969"/><ellipse cx="548.5586" cy="530.5969" fill="#ADD1B2" rx="11" ry="11" style="stroke:#181818;stroke-width:1;"/><path d="M551.5274,536.2375 Q550.9492,536.5344 550.3086,536.675 Q549.668,536.8313 548.9649,536.8313 Q546.4649,536.8313 545.1367,535.1906 Q543.8242,533.5344 543.8242,530.4094 Q543.8242,527.2844 545.1367,525.6281 Q546.4649,523.9719 548.9649,523.9719 Q549.668,523.9719 550.3086,524.1281 Q550.9649,524.2844 551.5274,524.5813 L551.5274,527.3 Q550.9024,526.7219 550.3086,526.4563 Q549.7149,526.175 549.0899,526.175 Q547.7461,526.175 547.0586,527.2531 Q546.3711,528.3156 546.3711,530.4094 Q546.3711,532.5031 547.0586,533.5813 Q547.7461,534.6438 549.0899,534.6438 Q549.7149,534.6438 550.3086,534.3781 Q550.9024,534.0969 551.5274,533.5188 L551.5274,536.2375 Z " fill="#000000"/><text fill="#000000" font-family="sans-serif" font-size="14" lengthAdjust="spacing" textLength="108.2334" x="569.0586" y="535.4436">BookingService</text><line style="stroke:#181818;stroke-width:0.5;" x1="370.98" x2="842.8706" y1="546.5969" y2="546.5969"/><line style="stroke:#181818;stroke-width:0.5;" x1="370.98" x2="842.8706" y1="554.5969" y2="554.5969"/><text fill="#000000" font-family="sans-serif" font-size="14" lengthAdjust="spacing" textLength="461.8906" x="375.98" y="571.592">+createBooking(castingId:UUID, modelId:UUID, terms:Map): UUID</text><text fill="#000000" font-family="sans-serif" font-size="14" lengthAdjust="spacing" textLength="295.9893" x="375.98" y="587.8889">+setStatus(bookingId:UUID, status:String)</text><text fill="#000000" font-family="sans-serif" font-size="14" lengthAdjust="spacing" textLength="366.9189" x="375.98" y="604.1857">+initiatePayment(bookingId:UUID, amount:Decimal)</text></g><!--class MessagingService--><g class="entity" data-entity="MessagingService" data-source-line="79" data-uid="ent0017" id="entity_MessagingService"><rect fill="#F1F1F1" height="80.5938" rx="2.5" ry="2.5" style="stroke:#181818;stroke-width:0.5;" width="330.377" x="1153.74" y="522.7469"/><ellipse cx="1251.6101" cy="538.7469" fill="#ADD1B2" rx="11" ry="11" style="stroke:#181818;stroke-width:1;"/><path d="M1254.5789,544.3875 Q1254.0007,544.6844 1253.3601,544.825 Q1252.7195,544.9812 1252.0164,544.9812 Q1249.5164,544.9812 1248.1882,543.3406 Q1246.8757,541.6844 1246.8757,538.5594 Q1246.8757,535.4344 1248.1882,533.7781 Q1249.5164,532.1219 1252.0164,532.1219 Q1252.7195,532.1219 1253.3601,532.2781 Q1254.0164,532.4344 1254.5789,532.7312 L1254.5789,535.45 Q1253.9539,534.8719 1253.3601,534.6062 Q1252.7664,534.325 1252.1414,534.325 Q1250.7976,534.325 1250.1101,535.4031 Q1249.4226,536.4656 1249.4226,538.5594 Q1249.4226,540.6531 1250.1101,541.7312 Q1250.7976,542.7937 1252.1414,542.7937 Q1252.7664,542.7937 1253.3601,542.5281 Q1253.9539,542.2469 1254.5789,541.6687 L1254.5789,544.3875 Z " fill="#000000"/><text fill="#000000" font-family="sans-serif" font-size="14" lengthAdjust="spacing" textLength="126.1367" x="1272.1101" y="543.5936">MessagingService</text><line style="stroke:#181818;stroke-width:0.5;" x1="1154.74" x2="1483.117" y1="554.7469" y2="554.7469"/><line style="stroke:#181818;stroke-width:0.5;" x1="1154.74" x2="1483.117" y1="562.7469" y2="562.7469"/><text fill="#000000" font-family="sans-serif" font-size="14" lengthAdjust="spacing" textLength="266.2598" x="1159.74" y="579.742">+getThread(id:UUID): List&lt;Message&gt;</text><text fill="#000000" font-family="sans-serif" font-size="14" lengthAdjust="spacing" textLength="318.377" x="1159.74" y="596.0389">+postMessage(threadId:UUID, msg:Message)</text></g><!--class AdminService--><g class="entity" data-entity="AdminService" data-source-line="83" data-uid="ent0018" id="entity_AdminService"><rect fill="#F1F1F1" height="96.8906" rx="2.5" ry="2.5" style="stroke:#181818;stroke-width:0.5;" width="352.0811" x="3134.89" y="514.5969"/><ellipse cx="3258.3778" cy="530.5969" fill="#ADD1B2" rx="11" ry="11" style="stroke:#181818;stroke-width:1;"/><path d="M3261.3465,536.2375 Q3260.7684,536.5344 3260.1278,536.675 Q3259.4872,536.8313 3258.784,536.8313 Q3256.284,536.8313 3254.9559,535.1906 Q3253.6434,533.5344 3253.6434,530.4094 Q3253.6434,527.2844 3254.9559,525.6281 Q3256.284,523.9719 3258.784,523.9719 Q3259.4872,523.9719 3260.1278,524.1281 Q3260.784,524.2844 3261.3465,524.5813 L3261.3465,527.3 Q3260.7215,526.7219 3260.1278,526.4563 Q3259.534,526.175 3258.909,526.175 Q3257.5653,526.175 3256.8778,527.2531 Q3256.1903,528.3156 3256.1903,530.4094 Q3256.1903,532.5031 3256.8778,533.5813 Q3257.5653,534.6438 3258.909,534.6438 Q3259.534,534.6438 3260.1278,534.3781 Q3260.7215,534.0969 3261.3465,533.5188 L3261.3465,536.2375 Z " fill="#000000"/><text fill="#000000" font-family="sans-serif" font-size="14" lengthAdjust="spacing" textLength="96.6055" x="3278.8778" y="535.4436">AdminService</text><line style="stroke:#181818;stroke-width:0.5;" x1="3135.89" x2="3485.9711" y1="546.5969" y2="546.5969"/><line style="stroke:#181818;stroke-width:0.5;" x1="3135.89" x2="3485.9711" y1="554.5969" y2="554.5969"/><text fill="#000000" font-family="sans-serif" font-size="14" lengthAdjust="spacing" textLength="340.0811" x="3140.89" y="571.592">+reviewApplication(appId:UUID, decision:String)</text><text fill="#000000" font-family="sans-serif" font-size="14" lengthAdjust="spacing" textLength="188.1182" x="3140.89" y="587.8889">+verifyModel(userId:UUID)</text><text fill="#000000" font-family="sans-serif" font-size="14" lengthAdjust="spacing" textLength="283.0625" x="3140.89" y="604.1857">+moderate(entityId:UUID, action:String)</text></g><!--class NotificationService--><g class="entity" data-entity="NotificationService" data-source-line="88" data-uid="ent0019" id="entity_NotificationService"><rect fill="#F1F1F1" height="80.5938" rx="2.5" ry="2.5" style="stroke:#181818;stroke-width:0.5;" width="385.7002" x="2741.08" y="85.0369"/><ellipse cx="2863.6449" cy="101.0369" fill="#ADD1B2" rx="11" ry="11" style="stroke:#181818;stroke-width:1;"/><path d="M2866.6137,106.6775 Q2866.0356,106.9744 2865.3949,107.115 Q2864.7543,107.2713 2864.0512,107.2713 Q2861.5512,107.2713 2860.2231,105.6306 Q2858.9106,103.9744 2858.9106,100.8494 Q2858.9106,97.7244 2860.2231,96.0681 Q2861.5512,94.4119 2864.0512,94.4119 Q2864.7543,94.4119 2865.3949,94.5681 Q2866.0512,94.7244 2866.6137,95.0213 L2866.6137,97.74 Q2865.9887,97.1619 2865.3949,96.8963 Q2864.8012,96.615 2864.1762,96.615 Q2862.8324,96.615 2862.1449,97.6931 Q2861.4574,98.7556 2861.4574,100.8494 Q2861.4574,102.9431 2862.1449,104.0213 Q2862.8324,105.0838 2864.1762,105.0838 Q2864.8012,105.0838 2865.3949,104.8181 Q2865.9887,104.5369 2866.6137,103.9588 L2866.6137,106.6775 Z " fill="#000000"/><text fill="#000000" font-family="sans-serif" font-size="14" lengthAdjust="spacing" textLength="132.0703" x="2884.1449" y="105.8836">NotificationService</text><line style="stroke:#181818;stroke-width:0.5;" x1="2742.08" x2="3125.7802" y1="117.0369" y2="117.0369"/><line style="stroke:#181818;stroke-width:0.5;" x1="2742.08" x2="3125.7802" y1="125.0369" y2="125.0369"/><text fill="#000000" font-family="sans-serif" font-size="14" lengthAdjust="spacing" textLength="346.2676" x="2747.08" y="142.032">+sendPush(userId:UUID, title:String, body:String)</text><text fill="#000000" font-family="sans-serif" font-size="14" lengthAdjust="spacing" textLength="373.7002" x="2747.08" y="158.3289">+sendEmail(email:String, subject:String, html:String)</text></g><!--class AnalyticsService--><g class="entity" data-entity="AnalyticsService" data-source-line="92" data-uid="ent0020" id="entity_AnalyticsService"><rect fill="#F1F1F1" height="64.2969" rx="2.5" ry="2.5" style="stroke:#181818;stroke-width:0.5;" width="239.2061" x="879.32" y="530.8969"/><ellipse cx="937.0153" cy="546.8969" fill="#ADD1B2" rx="11" ry="11" style="stroke:#181818;stroke-width:1;"/><path d="M939.9841,552.5375 Q939.4059,552.8344 938.7653,552.975 Q938.1247,553.1312 937.4216,553.1312 Q934.9216,553.1312 933.5934,551.4906 Q932.2809,549.8344 932.2809,546.7094 Q932.2809,543.5844 933.5934,541.9281 Q934.9216,540.2719 937.4216,540.2719 Q938.1247,540.2719 938.7653,540.4281 Q939.4216,540.5844 939.9841,540.8812 L939.9841,543.6 Q939.3591,543.0219 938.7653,542.7562 Q938.1716,542.475 937.5466,542.475 Q936.2028,542.475 935.5153,543.5531 Q934.8278,544.6156 934.8278,546.7094 Q934.8278,548.8031 935.5153,549.8812 Q936.2028,550.9437 937.5466,550.9437 Q938.1716,550.9437 938.7653,550.6781 Q939.3591,550.3969 939.9841,549.8187 L939.9841,552.5375 Z " fill="#000000"/><text fill="#000000" font-family="sans-serif" font-size="14" lengthAdjust="spacing" textLength="115.3154" x="957.5153" y="551.7436">AnalyticsService</text><line style="stroke:#181818;stroke-width:0.5;" x1="880.32" x2="1117.5261" y1="562.8969" y2="562.8969"/><line style="stroke:#181818;stroke-width:0.5;" x1="880.32" x2="1117.5261" y1="570.8969" y2="570.8969"/><text fill="#000000" font-family="sans-serif" font-size="14" lengthAdjust="spacing" textLength="227.2061" x="885.32" y="587.892">+track(event:String, props:Map)</text></g><!--class User--><g class="entity" data-entity="User" data-source-line="97" data-uid="ent0021" id="entity_User"><rect fill="#F1F1F1" height="162.0781" rx="2.5" ry="2.5" style="stroke:#181818;stroke-width:0.5;" width="283.6396" x="3362.11" y="44.2969"/><ellipse cx="3483.7247" cy="60.2969" fill="#ADD1B2" rx="11" ry="11" style="stroke:#181818;stroke-width:1;"/><path d="M3486.6935,65.9375 Q3486.1154,66.2344 3485.4747,66.375 Q3484.8341,66.5313 3484.131,66.5313 Q3481.631,66.5313 3480.3029,64.8906 Q3478.9904,63.2344 3478.9904,60.1094 Q3478.9904,56.9844 3480.3029,55.3281 Q3481.631,53.6719 3484.131,53.6719 Q3484.8341,53.6719 3485.4747,53.8281 Q3486.131,53.9844 3486.6935,54.2813 L3486.6935,57 Q3486.0685,56.4219 3485.4747,56.1563 Q3484.881,55.875 3484.256,55.875 Q3482.9122,55.875 3482.2247,56.9531 Q3481.5372,58.0156 3481.5372,60.1094 Q3481.5372,62.2031 3482.2247,63.2813 Q3482.9122,64.3438 3484.256,64.3438 Q3484.881,64.3438 3485.4747,64.0781 Q3486.0685,63.7969 3486.6935,63.2188 L3486.6935,65.9375 Z " fill="#000000"/><text fill="#000000" font-family="sans-serif" font-size="14" lengthAdjust="spacing" textLength="31.9102" x="3504.2247" y="65.1436">User</text><line style="stroke:#181818;stroke-width:0.5;" x1="3363.11" x2="3644.7496" y1="76.2969" y2="76.2969"/><text fill="#000000" font-family="sans-serif" font-size="14" lengthAdjust="spacing" textLength="69.0771" x="3368.11" y="93.292">+id: UUID</text><text fill="#000000" font-family="sans-serif" font-size="14" lengthAdjust="spacing" textLength="102.3818" x="3368.11" y="109.5889">+name: String</text><text fill="#000000" font-family="sans-serif" font-size="14" lengthAdjust="spacing" textLength="101.2881" x="3368.11" y="125.8857">+email: String</text><text fill="#000000" font-family="sans-serif" font-size="14" lengthAdjust="spacing" textLength="106.4902" x="3368.11" y="142.1826">+phone: String</text><text fill="#000000" font-family="sans-serif" font-size="14" lengthAdjust="spacing" textLength="271.6396" x="3368.11" y="158.4795">+role: String  ' MODEL, CLIENT, ADMIN</text><text fill="#000000" font-family="sans-serif" font-size="14" lengthAdjust="spacing" textLength="135.4883" x="3368.11" y="174.7764">+dateOfBirth: Date</text><text fill="#000000" font-family="sans-serif" font-size="14" lengthAdjust="spacing" textLength="164.6641" x="3368.11" y="191.0732">+passwordHash: String</text><line style="stroke:#181818;stroke-width:0.5;" x1="3363.11" x2="3644.7496" y1="198.375" y2="198.375"/></g><!--class ModelProfile--><g class="entity" data-entity="ModelProfile" data-source-line="106" data-uid="ent0022" id="entity_ModelProfile"><rect fill="#F1F1F1" height="129.4844" rx="2.5" ry="2.5" style="stroke:#181818;stroke-width:0.5;" width="232.5547" x="3387.65" y="299.6669"/><ellipse cx="3456.6178" cy="315.6669" fill="#ADD1B2" rx="11" ry="11" style="stroke:#181818;stroke-width:1;"/><path d="M3459.5865,321.3075 Q3459.0084,321.6044 3458.3678,321.745 Q3457.7271,321.9013 3457.024,321.9013 Q3454.524,321.9013 3453.1959,320.2606 Q3451.8834,318.6044 3451.8834,315.4794 Q3451.8834,312.3544 3453.1959,310.6981 Q3454.524,309.0419 3457.024,309.0419 Q3457.7271,309.0419 3458.3678,309.1981 Q3459.024,309.3544 3459.5865,309.6513 L3459.5865,312.37 Q3458.9615,311.7919 3458.3678,311.5263 Q3457.774,311.245 3457.149,311.245 Q3455.8053,311.245 3455.1178,312.3231 Q3454.4303,313.3856 3454.4303,315.4794 Q3454.4303,317.5731 3455.1178,318.6513 Q3455.8053,319.7138 3457.149,319.7138 Q3457.774,319.7138 3458.3678,319.4481 Q3458.9615,319.1669 3459.5865,318.5888 L3459.5865,321.3075 Z " fill="#000000"/><text fill="#000000" font-family="sans-serif" font-size="14" lengthAdjust="spacing" textLength="86.1191" x="3477.1178" y="320.5136">ModelProfile</text><line style="stroke:#181818;stroke-width:0.5;" x1="3388.65" x2="3619.2047" y1="331.6669" y2="331.6669"/><text fill="#000000" font-family="sans-serif" font-size="14" lengthAdjust="spacing" textLength="121.7617" x="3393.65" y="348.662">+height: Number</text><text fill="#000000" font-family="sans-serif" font-size="14" lengthAdjust="spacing" textLength="113.8389" x="3393.65" y="364.9589">+waist: Number</text><text fill="#000000" font-family="sans-serif" font-size="14" lengthAdjust="spacing" textLength="106.0801" x="3393.65" y="381.2557">+hips: Number</text><text fill="#000000" font-family="sans-serif" font-size="14" lengthAdjust="spacing" textLength="220.5547" x="3393.65" y="397.5526">+portfolioImages: List&lt;Media&gt;</text><text fill="#000000" font-family="sans-serif" font-size="14" lengthAdjust="spacing" textLength="185.7461" x="3393.65" y="413.8495">+verificationStatus: String</text><line style="stroke:#181818;stroke-width:0.5;" x1="3388.65" x2="3619.2047" y1="421.1513" y2="421.1513"/></g><!--class Agency--><g class="entity" data-entity="Agency" data-source-line="113" data-uid="ent0023" id="entity_Agency"><rect fill="#F1F1F1" height="96.8906" rx="2.5" ry="2.5" style="stroke:#181818;stroke-width:0.5;" width="153.5654" x="3747.14" y="76.8869"/><ellipse cx="3793.7064" cy="92.8869" fill="#ADD1B2" rx="11" ry="11" style="stroke:#181818;stroke-width:1;"/><path d="M3796.6752,98.5275 Q3796.097,98.8244 3795.4564,98.965 Q3794.8158,99.1212 3794.1127,99.1212 Q3791.6127,99.1212 3790.2845,97.4806 Q3788.972,95.8244 3788.972,92.6994 Q3788.972,89.5744 3790.2845,87.9181 Q3791.6127,86.2619 3794.1127,86.2619 Q3794.8158,86.2619 3795.4564,86.4181 Q3796.1127,86.5744 3796.6752,86.8712 L3796.6752,89.59 Q3796.0502,89.0119 3795.4564,88.7462 Q3794.8627,88.465 3794.2377,88.465 Q3792.8939,88.465 3792.2064,89.5431 Q3791.5189,90.6056 3791.5189,92.6994 Q3791.5189,94.7931 3792.2064,95.8712 Q3792.8939,96.9337 3794.2377,96.9337 Q3794.8627,96.9337 3795.4564,96.6681 Q3796.0502,96.3869 3796.6752,95.8087 L3796.6752,98.5275 Z " fill="#000000"/><text fill="#000000" font-family="sans-serif" font-size="14" lengthAdjust="spacing" textLength="51.9326" x="3814.2064" y="97.7336">Agency</text><line style="stroke:#181818;stroke-width:0.5;" x1="3748.14" x2="3899.7054" y1="108.8869" y2="108.8869"/><text fill="#000000" font-family="sans-serif" font-size="14" lengthAdjust="spacing" textLength="75.4551" x="3753.14" y="125.882">+id: String</text><text fill="#000000" font-family="sans-serif" font-size="14" lengthAdjust="spacing" textLength="102.3818" x="3753.14" y="142.1789">+name: String</text><text fill="#000000" font-family="sans-serif" font-size="14" lengthAdjust="spacing" textLength="141.5654" x="3753.14" y="158.4757">+contactInfo: String</text><line style="stroke:#181818;stroke-width:0.5;" x1="3748.14" x2="3899.7054" y1="165.7775" y2="165.7775"/></g><!--class CastingCall--><g class="entity" data-entity="CastingCall" data-source-line="118" data-uid="ent0024" id="entity_CastingCall"><rect fill="#F1F1F1" height="162.0781" rx="2.5" ry="2.5" style="stroke:#181818;stroke-width:0.5;" width="152.5195" x="3747.67" y="283.3769"/><ellipse cx="3781.3894" cy="299.3769" fill="#ADD1B2" rx="11" ry="11" style="stroke:#181818;stroke-width:1;"/><path d="M3784.3581,305.0175 Q3783.78,305.3144 3783.1394,305.455 Q3782.4988,305.6112 3781.7956,305.6112 Q3779.2956,305.6112 3777.9675,303.9706 Q3776.655,302.3144 3776.655,299.1894 Q3776.655,296.0644 3777.9675,294.4081 Q3779.2956,292.7519 3781.7956,292.7519 Q3782.4988,292.7519 3783.1394,292.9081 Q3783.7956,293.0644 3784.3581,293.3612 L3784.3581,296.08 Q3783.7331,295.5019 3783.1394,295.2362 Q3782.5456,294.955 3781.9206,294.955 Q3780.5769,294.955 3779.8894,296.0331 Q3779.2019,297.0956 3779.2019,299.1894 Q3779.2019,301.2831 3779.8894,302.3612 Q3780.5769,303.4237 3781.9206,303.4237 Q3782.5456,303.4237 3783.1394,303.1581 Q3783.7331,302.8769 3784.3581,302.2987 L3784.3581,305.0175 Z " fill="#000000"/><text fill="#000000" font-family="sans-serif" font-size="14" lengthAdjust="spacing" textLength="78.9209" x="3799.5492" y="304.2236">CastingCall</text><line style="stroke:#181818;stroke-width:0.5;" x1="3748.67" x2="3899.1895" y1="315.3769" y2="315.3769"/><text fill="#000000" font-family="sans-serif" font-size="14" lengthAdjust="spacing" textLength="75.4551" x="3753.67" y="332.372">+id: String</text><text fill="#000000" font-family="sans-serif" font-size="14" lengthAdjust="spacing" textLength="90.0498" x="3753.67" y="348.6689">+title: String</text><text fill="#000000" font-family="sans-serif" font-size="14" lengthAdjust="spacing" textLength="140.5195" x="3753.67" y="364.9657">+description: String</text><text fill="#000000" font-family="sans-serif" font-size="14" lengthAdjust="spacing" textLength="118.2275" x="3753.67" y="381.2626">+location: String</text><text fill="#000000" font-family="sans-serif" font-size="14" lengthAdjust="spacing" textLength="85.9277" x="3753.67" y="397.5595">+date: Date</text><text fill="#000000" font-family="sans-serif" font-size="14" lengthAdjust="spacing" textLength="127.6201" x="3753.67" y="413.8564">+budget: Decimal</text><text fill="#000000" font-family="sans-serif" font-size="14" lengthAdjust="spacing" textLength="105.6973" x="3753.67" y="430.1532">+status: String</text><line style="stroke:#181818;stroke-width:0.5;" x1="3748.67" x2="3899.1895" y1="437.455" y2="437.455"/></g><!--class Application--><g class="entity" data-entity="Application" data-source-line="127" data-uid="ent0025" id="entity_Application"><rect fill="#F1F1F1" height="113.1875" rx="2.5" ry="2.5" style="stroke:#181818;stroke-width:0.5;" width="164.5371" x="3741.66" y="506.4469"/><ellipse cx="3781.1011" cy="522.4469" fill="#ADD1B2" rx="11" ry="11" style="stroke:#181818;stroke-width:1;"/><path d="M3784.0698,528.0875 Q3783.4917,528.3844 3782.8511,528.525 Q3782.2104,528.6813 3781.5073,528.6813 Q3779.0073,528.6813 3777.6792,527.0406 Q3776.3667,525.3844 3776.3667,522.2594 Q3776.3667,519.1344 3777.6792,517.4781 Q3779.0073,515.8219 3781.5073,515.8219 Q3782.2104,515.8219 3782.8511,515.9781 Q3783.5073,516.1344 3784.0698,516.4313 L3784.0698,519.15 Q3783.4448,518.5719 3782.8511,518.3063 Q3782.2573,518.025 3781.6323,518.025 Q3780.2886,518.025 3779.6011,519.1031 Q3778.9136,520.1656 3778.9136,522.2594 Q3778.9136,524.3531 3779.6011,525.4313 Q3780.2886,526.4938 3781.6323,526.4938 Q3782.2573,526.4938 3782.8511,526.2281 Q3783.4448,525.9469 3784.0698,525.3688 L3784.0698,528.0875 Z " fill="#000000"/><text fill="#000000" font-family="sans-serif" font-size="14" lengthAdjust="spacing" textLength="78.2236" x="3800.5324" y="527.2936">Application</text><line style="stroke:#181818;stroke-width:0.5;" x1="3742.66" x2="3905.1971" y1="538.4469" y2="538.4469"/><text fill="#000000" font-family="sans-serif" font-size="14" lengthAdjust="spacing" textLength="75.4551" x="3747.66" y="555.442">+id: String</text><text fill="#000000" font-family="sans-serif" font-size="14" lengthAdjust="spacing" textLength="106.2305" x="3747.66" y="571.7389">+userId: String</text><text fill="#000000" font-family="sans-serif" font-size="14" lengthAdjust="spacing" textLength="152.5371" x="3747.66" y="588.0357">+castingCallId: String</text><text fill="#000000" font-family="sans-serif" font-size="14" lengthAdjust="spacing" textLength="105.6973" x="3747.66" y="604.3326">+status: String</text><line style="stroke:#181818;stroke-width:0.5;" x1="3742.66" x2="3905.1971" y1="611.6344" y2="611.6344"/></g><!--class Booking--><g class="entity" data-entity="Booking" data-source-line="133" data-uid="ent0026" id="entity_Booking"><rect fill="#F1F1F1" height="162.0781" rx="2.5" ry="2.5" style="stroke:#181818;stroke-width:0.5;" width="152.7178" x="3747.57" y="696.6369"/><ellipse cx="3791.4715" cy="712.6369" fill="#ADD1B2" rx="11" ry="11" style="stroke:#181818;stroke-width:1;"/><path d="M3794.4403,718.2775 Q3793.8621,718.5744 3793.2215,718.715 Q3792.5809,718.8712 3791.8778,718.8712 Q3789.3778,718.8712 3788.0496,717.2306 Q3786.7371,715.5744 3786.7371,712.4494 Q3786.7371,709.3244 3788.0496,707.6681 Q3789.3778,706.0119 3791.8778,706.0119 Q3792.5809,706.0119 3793.2215,706.1681 Q3793.8778,706.3244 3794.4403,706.6212 L3794.4403,709.34 Q3793.8153,708.7619 3793.2215,708.4962 Q3792.6278,708.215 3792.0028,708.215 Q3790.659,708.215 3789.9715,709.2931 Q3789.284,710.3556 3789.284,712.4494 Q3789.284,714.5431 3789.9715,715.6212 Q3790.659,716.6837 3792.0028,716.6837 Q3792.6278,716.6837 3793.2215,716.4181 Q3793.8153,716.1369 3794.4403,715.5587 L3794.4403,718.2775 Z " fill="#000000"/><text fill="#000000" font-family="sans-serif" font-size="14" lengthAdjust="spacing" textLength="56.4922" x="3811.8941" y="717.4836">Booking</text><line style="stroke:#181818;stroke-width:0.5;" x1="3748.57" x2="3899.2878" y1="728.6369" y2="728.6369"/><text fill="#000000" font-family="sans-serif" font-size="14" lengthAdjust="spacing" textLength="75.4551" x="3753.57" y="745.632">+id: String</text><text fill="#000000" font-family="sans-serif" font-size="14" lengthAdjust="spacing" textLength="126.4033" x="3753.57" y="761.9289">+castingId: String</text><text fill="#000000" font-family="sans-serif" font-size="14" lengthAdjust="spacing" textLength="119.2871" x="3753.57" y="778.2257">+modelId: String</text><text fill="#000000" font-family="sans-serif" font-size="14" lengthAdjust="spacing" textLength="114.1465" x="3753.57" y="794.5226">+clientId: String</text><text fill="#000000" font-family="sans-serif" font-size="14" lengthAdjust="spacing" textLength="105.6973" x="3753.57" y="810.8195">+status: String</text><text fill="#000000" font-family="sans-serif" font-size="14" lengthAdjust="spacing" textLength="106.4219" x="3753.57" y="827.1164">+rate: Decimal</text><text fill="#000000" font-family="sans-serif" font-size="14" lengthAdjust="spacing" textLength="140.7178" x="3753.57" y="843.4132">+contractUrl: String</text><line style="stroke:#181818;stroke-width:0.5;" x1="3748.57" x2="3899.2878" y1="850.715" y2="850.715"/></g><!--class Message--><g class="entity" data-entity="Message" data-source-line="142" data-uid="ent0027" id="entity_Message"><rect fill="#F1F1F1" height="129.4844" rx="2.5" ry="2.5" style="stroke:#181818;stroke-width:0.5;" width="146.3877" x="3935.73" y="60.5869"/><ellipse cx="3974.5927" cy="76.5869" fill="#ADD1B2" rx="11" ry="11" style="stroke:#181818;stroke-width:1;"/><path d="M3977.5615,82.2275 Q3976.9834,82.5244 3976.3427,82.665 Q3975.7021,82.8212 3974.999,82.8212 Q3972.499,82.8212 3971.1709,81.1806 Q3969.8584,79.5244 3969.8584,76.3994 Q3969.8584,73.2744 3971.1709,71.6181 Q3972.499,69.9619 3974.999,69.9619 Q3975.7021,69.9619 3976.3427,70.1181 Q3976.999,70.2744 3977.5615,70.5712 L3977.5615,73.29 Q3976.9365,72.7119 3976.3427,72.4462 Q3975.749,72.165 3975.124,72.165 Q3973.7802,72.165 3973.0927,73.2431 Q3972.4052,74.3056 3972.4052,76.3994 Q3972.4052,78.4931 3973.0927,79.5712 Q3973.7802,80.6337 3975.124,80.6337 Q3975.749,80.6337 3976.3427,80.3681 Q3976.9365,80.0869 3977.5615,79.5087 L3977.5615,82.2275 Z " fill="#000000"/><text fill="#000000" font-family="sans-serif" font-size="14" lengthAdjust="spacing" textLength="61.3594" x="3993.8956" y="81.4336">Message</text><line style="stroke:#181818;stroke-width:0.5;" x1="3936.73" x2="4081.1177" y1="92.5869" y2="92.5869"/><text fill="#000000" font-family="sans-serif" font-size="14" lengthAdjust="spacing" textLength="75.4551" x="3941.73" y="109.582">+id: String</text><text fill="#000000" font-family="sans-serif" font-size="14" lengthAdjust="spacing" textLength="121.8916" x="3941.73" y="125.8789">+threadId: String</text><text fill="#000000" font-family="sans-serif" font-size="14" lengthAdjust="spacing" textLength="123.7305" x="3941.73" y="142.1757">+senderId: String</text><text fill="#000000" font-family="sans-serif" font-size="14" lengthAdjust="spacing" textLength="116.2793" x="3941.73" y="158.4726">+content: String</text><text fill="#000000" font-family="sans-serif" font-size="14" lengthAdjust="spacing" textLength="134.3877" x="3941.73" y="174.7695">+sentAt: DateTime</text><line style="stroke:#181818;stroke-width:0.5;" x1="3936.73" x2="4081.1177" y1="182.0712" y2="182.0712"/></g><!--class Media--><g class="entity" data-entity="Media" data-source-line="149" data-uid="ent0028" id="entity_Media"><rect fill="#F1F1F1" height="80.5938" rx="2.5" ry="2.5" style="stroke:#181818;stroke-width:0.5;" width="105.9531" x="4116.95" y="85.0369"/><ellipse cx="4146.3074" cy="101.0369" fill="#ADD1B2" rx="11" ry="11" style="stroke:#181818;stroke-width:1;"/><path d="M4149.2761,106.6775 Q4148.698,106.9744 4148.0574,107.115 Q4147.4167,107.2713 4146.7136,107.2713 Q4144.2136,107.2713 4142.8855,105.6306 Q4141.573,103.9744 4141.573,100.8494 Q4141.573,97.7244 4142.8855,96.0681 Q4144.2136,94.4119 4146.7136,94.4119 Q4147.4167,94.4119 4148.0574,94.5681 Q4148.7136,94.7244 4149.2761,95.0213 L4149.2761,97.74 Q4148.6511,97.1619 4148.0574,96.8963 Q4147.4636,96.615 4146.8386,96.615 Q4145.4949,96.615 4144.8074,97.6931 Q4144.1199,98.7556 4144.1199,100.8494 Q4144.1199,102.9431 4144.8074,104.0213 Q4145.4949,105.0838 4146.8386,105.0838 Q4147.4636,105.0838 4148.0574,104.8181 Q4148.6511,104.5369 4149.2761,103.9588 L4149.2761,106.6775 Z " fill="#000000"/><text fill="#000000" font-family="sans-serif" font-size="14" lengthAdjust="spacing" textLength="42.0479" x="4163.4979" y="105.8836">Media</text><line style="stroke:#181818;stroke-width:0.5;" x1="4117.95" x2="4221.9031" y1="117.0369" y2="117.0369"/><text fill="#000000" font-family="sans-serif" font-size="14" lengthAdjust="spacing" textLength="81.1973" x="4122.95" y="134.032">+url: String</text><text fill="#000000" font-family="sans-serif" font-size="14" lengthAdjust="spacing" textLength="93.9531" x="4122.95" y="150.3289">+type: String</text><line style="stroke:#181818;stroke-width:0.5;" x1="4117.95" x2="4221.9031" y1="157.6306" y2="157.6306"/></g><!--class Database--><g class="entity" data-entity="Database" data-source-line="155" data-uid="ent0029" id="entity_Database"><rect fill="#F1F1F1" height="154.0469" rx="2.5" ry="2.5" style="stroke:#181818;stroke-width:0.5;" width="108.25" x="1409.8" y="700.6569"/><ellipse cx="1429.0521" cy="720.7897" fill="#ADD1B2" rx="11" ry="11" style="stroke:#181818;stroke-width:1;"/><path d="M1432.0209,726.4303 Q1431.4428,726.7272 1430.8021,726.8678 Q1430.1615,727.0241 1429.4584,727.0241 Q1426.9584,727.0241 1425.6303,725.3834 Q1424.3178,723.7272 1424.3178,720.6022 Q1424.3178,717.4772 1425.6303,715.8209 Q1426.9584,714.1647 1429.4584,714.1647 Q1430.1615,714.1647 1430.8021,714.3209 Q1431.4584,714.4772 1432.0209,714.7741 L1432.0209,717.4928 Q1431.3959,716.9147 1430.8021,716.6491 Q1430.2084,716.3678 1429.5834,716.3678 Q1428.2396,716.3678 1427.5521,717.4459 Q1426.8646,718.5084 1426.8646,720.6022 Q1426.8646,722.6959 1427.5521,723.7741 Q1428.2396,724.8366 1429.5834,724.8366 Q1430.2084,724.8366 1430.8021,724.5709 Q1431.3959,724.2897 1432.0209,723.7116 L1432.0209,726.4303 Z " fill="#000000"/><text fill="#000000" font-family="sans-serif" font-size="12" font-style="italic" lengthAdjust="spacing" textLength="70.3184" x="1442.2383" y="716.7955">&#171;database&#187;</text><text fill="#000000" font-family="sans-serif" font-size="14" lengthAdjust="spacing" textLength="66.8008" x="1443.9971" y="732.6207">Database</text><line style="stroke:#181818;stroke-width:0.5;" x1="1410.8" x2="1517.05" y1="740.9225" y2="740.9225"/><text fill="#000000" font-family="sans-serif" font-size="14" lengthAdjust="spacing" textLength="49.5605" x="1415.8" y="757.9176">+users</text><text fill="#000000" font-family="sans-serif" font-size="14" lengthAdjust="spacing" textLength="63.5537" x="1415.8" y="774.2145">+profiles</text><text fill="#000000" font-family="sans-serif" font-size="14" lengthAdjust="spacing" textLength="69.7334" x="1415.8" y="790.5114">+castings</text><text fill="#000000" font-family="sans-serif" font-size="14" lengthAdjust="spacing" textLength="96.25" x="1415.8" y="806.8082">+applications</text><text fill="#000000" font-family="sans-serif" font-size="14" lengthAdjust="spacing" textLength="74.7988" x="1415.8" y="823.1051">+bookings</text><text fill="#000000" font-family="sans-serif" font-size="14" lengthAdjust="spacing" textLength="81.9424" x="1415.8" y="839.402">+messages</text><line style="stroke:#181818;stroke-width:0.5;" x1="1410.8" x2="1517.05" y1="846.7038" y2="846.7038"/></g><!--class ObjectStorage--><g class="entity" data-entity="ObjectStorage" data-source-line="163" data-uid="ent0030" id="entity_ObjectStorage"><rect fill="#F1F1F1" height="80.5938" rx="2.5" ry="2.5" style="stroke:#181818;stroke-width:0.5;" width="132.3721" x="1959.74" y="737.3769"/><ellipse cx="1974.74" cy="753.3769" fill="#ADD1B2" rx="11" ry="11" style="stroke:#181818;stroke-width:1;"/><path d="M1977.7088,759.0175 Q1977.1306,759.3144 1976.49,759.455 Q1975.8494,759.6112 1975.1463,759.6112 Q1972.6463,759.6112 1971.3181,757.9706 Q1970.0056,756.3144 1970.0056,753.1894 Q1970.0056,750.0644 1971.3181,748.4081 Q1972.6463,746.7519 1975.1463,746.7519 Q1975.8494,746.7519 1976.49,746.9081 Q1977.1463,747.0644 1977.7088,747.3612 L1977.7088,750.08 Q1977.0838,749.5019 1976.49,749.2362 Q1975.8963,748.955 1975.2713,748.955 Q1973.9275,748.955 1973.24,750.0331 Q1972.5525,751.0956 1972.5525,753.1894 Q1972.5525,755.2831 1973.24,756.3612 Q1973.9275,757.4237 1975.2713,757.4237 Q1975.8963,757.4237 1976.49,757.1581 Q1977.0838,756.8769 1977.7088,756.2987 L1977.7088,759.0175 Z " fill="#000000"/><text fill="#000000" font-family="sans-serif" font-size="14" lengthAdjust="spacing" textLength="100.3721" x="1988.74" y="758.2236">ObjectStorage</text><line style="stroke:#181818;stroke-width:0.5;" x1="1960.74" x2="2091.1121" y1="769.3769" y2="769.3769"/><line style="stroke:#181818;stroke-width:0.5;" x1="1960.74" x2="2091.1121" y1="777.3769" y2="777.3769"/><text fill="#000000" font-family="sans-serif" font-size="14" lengthAdjust="spacing" textLength="104.166" x="1965.74" y="794.372">+put(file): URL</text><text fill="#000000" font-family="sans-serif" font-size="14" lengthAdjust="spacing" textLength="111.8975" x="1965.74" y="810.6689">+get(url): bytes</text></g><!--class SSOProvider--><g class="entity" data-entity="SSOProvider" data-source-line="167" data-uid="ent0031" id="entity_SSOProvider"><rect fill="#F1F1F1" height="80.5938" rx="2.5" ry="2.5" style="stroke:#181818;stroke-width:0.5;" width="118.9873" x="111.43" y="737.3769"/><ellipse cx="126.43" cy="753.3769" fill="#ADD1B2" rx="11" ry="11" style="stroke:#181818;stroke-width:1;"/><path d="M129.3988,759.0175 Q128.8206,759.3144 128.18,759.455 Q127.5394,759.6112 126.8363,759.6112 Q124.3363,759.6112 123.0081,757.9706 Q121.6956,756.3144 121.6956,753.1894 Q121.6956,750.0644 123.0081,748.4081 Q124.3363,746.7519 126.8363,746.7519 Q127.5394,746.7519 128.18,746.9081 Q128.8363,747.0644 129.3988,747.3612 L129.3988,750.08 Q128.7738,749.5019 128.18,749.2362 Q127.5863,748.955 126.9613,748.955 Q125.6175,748.955 124.93,750.0331 Q124.2425,751.0956 124.2425,753.1894 Q124.2425,755.2831 124.93,756.3612 Q125.6175,757.4237 126.9613,757.4237 Q127.5863,757.4237 128.18,757.1581 Q128.7738,756.8769 129.3988,756.2987 L129.3988,759.0175 Z " fill="#000000"/><text fill="#000000" font-family="sans-serif" font-size="14" lengthAdjust="spacing" textLength="86.9873" x="140.43" y="758.2236">SSOProvider</text><line style="stroke:#181818;stroke-width:0.5;" x1="112.43" x2="229.4173" y1="769.3769" y2="769.3769"/><line style="stroke:#181818;stroke-width:0.5;" x1="112.43" x2="229.4173" y1="777.3769" y2="777.3769"/><text fill="#000000" font-family="sans-serif" font-size="14" lengthAdjust="spacing" textLength="88.6416" x="117.43" y="794.372">+authorize()</text><text fill="#000000" font-family="sans-serif" font-size="14" lengthAdjust="spacing" textLength="62.3027" x="117.43" y="810.6689">+token()</text></g><!--class PushProvider--><g class="entity" data-entity="PushProvider" data-source-line="171" data-uid="ent0032" id="entity_PushProvider"><rect fill="#F1F1F1" height="64.2969" rx="2.5" ry="2.5" style="stroke:#181818;stroke-width:0.5;" width="258.2646" x="2642.79" y="332.2669"/><ellipse cx="2721.8339" cy="348.2669" fill="#ADD1B2" rx="11" ry="11" style="stroke:#181818;stroke-width:1;"/><path d="M2724.8027,353.9075 Q2724.2246,354.2044 2723.5839,354.345 Q2722.9433,354.5012 2722.2402,354.5012 Q2719.7402,354.5012 2718.4121,352.8606 Q2717.0996,351.2044 2717.0996,348.0794 Q2717.0996,344.9544 2718.4121,343.2981 Q2719.7402,341.6419 2722.2402,341.6419 Q2722.9433,341.6419 2723.5839,341.7981 Q2724.2402,341.9544 2724.8027,342.2512 L2724.8027,344.97 Q2724.1777,344.3919 2723.5839,344.1262 Q2722.9902,343.845 2722.3652,343.845 Q2721.0214,343.845 2720.3339,344.9231 Q2719.6464,345.9856 2719.6464,348.0794 Q2719.6464,350.1731 2720.3339,351.2512 Q2721.0214,352.3137 2722.3652,352.3137 Q2722.9902,352.3137 2723.5839,352.0481 Q2724.1777,351.7669 2724.8027,351.1887 L2724.8027,353.9075 Z " fill="#000000"/><text fill="#000000" font-family="sans-serif" font-size="14" lengthAdjust="spacing" textLength="91.6768" x="2742.3339" y="353.1136">PushProvider</text><line style="stroke:#181818;stroke-width:0.5;" x1="2643.79" x2="2900.0546" y1="364.2669" y2="364.2669"/><line style="stroke:#181818;stroke-width:0.5;" x1="2643.79" x2="2900.0546" y1="372.2669" y2="372.2669"/><text fill="#000000" font-family="sans-serif" font-size="14" lengthAdjust="spacing" textLength="246.2646" x="2648.79" y="389.262">+send(token:String, payload:JSON)</text></g><!--class EmailProvider--><g class="entity" data-entity="EmailProvider" data-source-line="174" data-uid="ent0033" id="entity_EmailProvider"><rect fill="#F1F1F1" height="64.2969" rx="2.5" ry="2.5" style="stroke:#181818;stroke-width:0.5;" width="322.3037" x="2935.78" y="332.2669"/><ellipse cx="3044.1638" cy="348.2669" fill="#ADD1B2" rx="11" ry="11" style="stroke:#181818;stroke-width:1;"/><path d="M3047.1325,353.9075 Q3046.5544,354.2044 3045.9138,354.345 Q3045.2732,354.5012 3044.57,354.5012 Q3042.07,354.5012 3040.7419,352.8606 Q3039.4294,351.2044 3039.4294,348.0794 Q3039.4294,344.9544 3040.7419,343.2981 Q3042.07,341.6419 3044.57,341.6419 Q3045.2732,341.6419 3045.9138,341.7981 Q3046.57,341.9544 3047.1325,342.2512 L3047.1325,344.97 Q3046.5075,344.3919 3045.9138,344.1262 Q3045.32,343.845 3044.695,343.845 Q3043.3513,343.845 3042.6638,344.9231 Q3041.9763,345.9856 3041.9763,348.0794 Q3041.9763,350.1731 3042.6638,351.2512 Q3043.3513,352.3137 3044.695,352.3137 Q3045.32,352.3137 3045.9138,352.0481 Q3046.5075,351.7669 3047.1325,351.1887 L3047.1325,353.9075 Z " fill="#000000"/><text fill="#000000" font-family="sans-serif" font-size="14" lengthAdjust="spacing" textLength="97.0361" x="3064.6638" y="353.1136">EmailProvider</text><line style="stroke:#181818;stroke-width:0.5;" x1="2936.78" x2="3257.0837" y1="364.2669" y2="364.2669"/><line style="stroke:#181818;stroke-width:0.5;" x1="2936.78" x2="3257.0837" y1="372.2669" y2="372.2669"/><text fill="#000000" font-family="sans-serif" font-size="14" lengthAdjust="spacing" textLength="310.3037" x="2941.78" y="389.262">+send(to:String, subject:String, html:String)</text></g><!--class PaymentGateway--><g class="entity" data-entity="PaymentGateway" data-source-line="177" data-uid="ent0034" id="entity_PaymentGateway"><rect fill="#F1F1F1" height="80.5938" rx="2.5" ry="2.5" style="stroke:#181818;stroke-width:0.5;" width="385.4063" x="414.22" y="737.3769"/><ellipse cx="540.7908" cy="753.3769" fill="#ADD1B2" rx="11" ry="11" style="stroke:#181818;stroke-width:1;"/><path d="M543.7596,759.0175 Q543.1814,759.3144 542.5408,759.455 Q541.9002,759.6112 541.1971,759.6112 Q538.6971,759.6112 537.3689,757.9706 Q536.0564,756.3144 536.0564,753.1894 Q536.0564,750.0644 537.3689,748.4081 Q538.6971,746.7519 541.1971,746.7519 Q541.9002,746.7519 542.5408,746.9081 Q543.1971,747.0644 543.7596,747.3612 L543.7596,750.08 Q543.1346,749.5019 542.5408,749.2362 Q541.9471,748.955 541.3221,748.955 Q539.9783,748.955 539.2908,750.0331 Q538.6033,751.0956 538.6033,753.1894 Q538.6033,755.2831 539.2908,756.3612 Q539.9783,757.4237 541.3221,757.4237 Q541.9471,757.4237 542.5408,757.1581 Q543.1346,756.8769 543.7596,756.2987 L543.7596,759.0175 Z " fill="#000000"/><text fill="#000000" font-family="sans-serif" font-size="14" lengthAdjust="spacing" textLength="123.7646" x="561.2908" y="758.2236">PaymentGateway</text><line style="stroke:#181818;stroke-width:0.5;" x1="415.22" x2="798.6263" y1="769.3769" y2="769.3769"/><line style="stroke:#181818;stroke-width:0.5;" x1="415.22" x2="798.6263" y1="777.3769" y2="777.3769"/><text fill="#000000" font-family="sans-serif" font-size="14" lengthAdjust="spacing" textLength="373.4063" x="420.22" y="794.372">+createCheckout(bookingId:String, amount:Decimal)</text><text fill="#000000" font-family="sans-serif" font-size="14" lengthAdjust="spacing" textLength="85.7158" x="420.22" y="810.6689">+webhook()</text></g><!--class KYCService--><g class="entity" data-entity="KYCService" data-source-line="181" data-uid="ent0035" id="entity_KYCService"><rect fill="#F1F1F1" height="64.2969" rx="2.5" ry="2.5" style="stroke:#181818;stroke-width:0.5;" width="345.6689" x="3100.09" y="745.5269"/><ellipse cx="3229.05" cy="761.5269" fill="#ADD1B2" rx="11" ry="11" style="stroke:#181818;stroke-width:1;"/><path d="M3232.0187,767.1675 Q3231.4406,767.4644 3230.8,767.605 Q3230.1593,767.7612 3229.4562,767.7612 Q3226.9562,767.7612 3225.6281,766.1206 Q3224.3156,764.4644 3224.3156,761.3394 Q3224.3156,758.2144 3225.6281,756.5581 Q3226.9562,754.9019 3229.4562,754.9019 Q3230.1593,754.9019 3230.8,755.0581 Q3231.4562,755.2144 3232.0187,755.5112 L3232.0187,758.23 Q3231.3937,757.6519 3230.8,757.3862 Q3230.2062,757.105 3229.5812,757.105 Q3228.2375,757.105 3227.55,758.1831 Q3226.8625,759.2456 3226.8625,761.3394 Q3226.8625,763.4331 3227.55,764.5112 Q3228.2375,765.5737 3229.5812,765.5737 Q3230.2062,765.5737 3230.8,765.3081 Q3231.3937,765.0269 3232.0187,764.4487 L3232.0187,767.1675 Z " fill="#000000"/><text fill="#000000" font-family="sans-serif" font-size="14" lengthAdjust="spacing" textLength="79.249" x="3249.55" y="766.3736">KYCService</text><line style="stroke:#181818;stroke-width:0.5;" x1="3101.09" x2="3444.7589" y1="777.5269" y2="777.5269"/><line style="stroke:#181818;stroke-width:0.5;" x1="3101.09" x2="3444.7589" y1="785.5269" y2="785.5269"/><text fill="#000000" font-family="sans-serif" font-size="14" lengthAdjust="spacing" textLength="333.6689" x="3106.09" y="802.522">+verifyID(userId:String, docUrl:String): Boolean</text></g><!--class MapsService--><g class="entity" data-entity="MapsService" data-source-line="184" data-uid="ent0036" id="entity_MapsService"><rect fill="#F1F1F1" height="64.2969" rx="2.5" ry="2.5" style="stroke:#181818;stroke-width:0.5;" width="268.7441" x="2759.56" y="745.5269"/><ellipse cx="2845.392" cy="761.5269" fill="#ADD1B2" rx="11" ry="11" style="stroke:#181818;stroke-width:1;"/><path d="M2848.3608,767.1675 Q2847.7827,767.4644 2847.142,767.605 Q2846.5014,767.7612 2845.7983,767.7612 Q2843.2983,767.7612 2841.9702,766.1206 Q2840.6577,764.4644 2840.6577,761.3394 Q2840.6577,758.2144 2841.9702,756.5581 Q2843.2983,754.9019 2845.7983,754.9019 Q2846.5014,754.9019 2847.142,755.0581 Q2847.7983,755.2144 2848.3608,755.5112 L2848.3608,758.23 Q2847.7358,757.6519 2847.142,757.3862 Q2846.5483,757.105 2845.9233,757.105 Q2844.5795,757.105 2843.892,758.1831 Q2843.2045,759.2456 2843.2045,761.3394 Q2843.2045,763.4331 2843.892,764.5112 Q2844.5795,765.5737 2845.9233,765.5737 Q2846.5483,765.5737 2847.142,765.3081 Q2847.7358,765.0269 2848.3608,764.4487 L2848.3608,767.1675 Z " fill="#000000"/><text fill="#000000" font-family="sans-serif" font-size="14" lengthAdjust="spacing" textLength="88.5801" x="2865.892" y="766.3736">MapsService</text><line style="stroke:#181818;stroke-width:0.5;" x1="2760.56" x2="3027.3041" y1="777.5269" y2="777.5269"/><line style="stroke:#181818;stroke-width:0.5;" x1="2760.56" x2="3027.3041" y1="785.5269" y2="785.5269"/><text fill="#000000" font-family="sans-serif" font-size="14" lengthAdjust="spacing" textLength="256.7441" x="2765.56" y="802.522">+geocode(address:String): GeoPoint</text></g><!--class ModerationAPI--><g class="entity" data-entity="ModerationAPI" data-source-line="187" data-uid="ent0037" id="entity_ModerationAPI"><rect fill="#F1F1F1" height="80.5938" rx="2.5" ry="2.5" style="stroke:#181818;stroke-width:0.5;" width="232.165" x="3480.84" y="737.3769"/><ellipse cx="3541.9499" cy="753.3769" fill="#ADD1B2" rx="11" ry="11" style="stroke:#181818;stroke-width:1;"/><path d="M3544.9186,759.0175 Q3544.3405,759.3144 3543.6999,759.455 Q3543.0592,759.6112 3542.3561,759.6112 Q3539.8561,759.6112 3538.528,757.9706 Q3537.2155,756.3144 3537.2155,753.1894 Q3537.2155,750.0644 3538.528,748.4081 Q3539.8561,746.7519 3542.3561,746.7519 Q3543.0592,746.7519 3543.6999,746.9081 Q3544.3561,747.0644 3544.9186,747.3612 L3544.9186,750.08 Q3544.2936,749.5019 3543.6999,749.2362 Q3543.1061,748.955 3542.4811,748.955 Q3541.1374,748.955 3540.4499,750.0331 Q3539.7624,751.0956 3539.7624,753.1894 Q3539.7624,755.2831 3540.4499,756.3612 Q3541.1374,757.4237 3542.4811,757.4237 Q3543.1061,757.4237 3543.6999,757.1581 Q3544.2936,756.8769 3544.9186,756.2987 L3544.9186,759.0175 Z " fill="#000000"/><text fill="#000000" font-family="sans-serif" font-size="14" lengthAdjust="spacing" textLength="101.4453" x="3562.4499" y="758.2236">ModerationAPI</text><line style="stroke:#181818;stroke-width:0.5;" x1="3481.84" x2="3712.005" y1="769.3769" y2="769.3769"/><line style="stroke:#181818;stroke-width:0.5;" x1="3481.84" x2="3712.005" y1="777.3769" y2="777.3769"/><text fill="#000000" font-family="sans-serif" font-size="14" lengthAdjust="spacing" textLength="220.165" x="3486.84" y="794.372">+scanImage(url:String): Report</text><text fill="#000000" font-family="sans-serif" font-size="14" lengthAdjust="spacing" textLength="216.6172" x="3486.84" y="810.6689">+scanText(text:String): Report</text></g><!--link AndroidApp to AuthAPI--><g class="link" data-entity-1="AndroidApp" data-entity-2="AuthAPI" data-source-line="193" data-uid="lnk38" id="link_AndroidApp_AuthAPI"><path codeLine="193" d="M1480.1,140.0569 C1388.48,158.6769 1232.82,197.5869 1113.93,264.8169 C1093.62,276.2969 1078.2528,287.9653 1061.1128,303.4453" fill="none" id="AndroidApp-to-AuthAPI" style="stroke:#181818;stroke-width:1;"/><polygon fill="#181818" points="1056.66,307.4669,1066.0202,304.4031,1060.3707,304.1156,1060.6582,298.4661,1056.66,307.4669" style="stroke:#181818;stroke-width:1;"/></g><!--link AndroidApp to ProfileAPI--><g class="link" data-entity-1="AndroidApp" data-entity-2="ProfileAPI" data-source-line="194" data-uid="lnk39" id="link_AndroidApp_ProfileAPI"><path codeLine="194" d="M1599.95,190.4869 C1626.44,229.9869 1656.4884,274.7735 1680.6284,310.7735" fill="none" id="AndroidApp-to-ProfileAPI" style="stroke:#181818;stroke-width:1;"/><polygon fill="#181818" points="1683.97,315.7569,1682.2798,306.0541,1681.1853,311.6041,1675.6354,310.5096,1683.97,315.7569" style="stroke:#181818;stroke-width:1;"/></g><!--link AndroidApp to CastingAPI--><g class="link" data-entity-1="AndroidApp" data-entity-2="CastingAPI" data-source-line="195" data-uid="lnk40" id="link_AndroidApp_CastingAPI"><path codeLine="195" d="M1633.6,131.7669 C1746.5,142.6269 1961.05,174.3769 2117.93,264.8169 C2140.17,277.6369 2156.5863,292.6825 2172.7163,311.0125" fill="none" id="AndroidApp-to-CastingAPI" style="stroke:#181818;stroke-width:1;"/><polygon fill="#181818" points="2176.68,315.5169,2173.7373,306.1179,2173.3769,311.7633,2167.7315,311.4029,2176.68,315.5169" style="stroke:#181818;stroke-width:1;"/></g><!--link AndroidApp to ApplicationAPI--><g class="link" data-entity-1="AndroidApp" data-entity-2="ApplicationAPI" data-source-line="196" data-uid="lnk41" id="link_AndroidApp_ApplicationAPI"><path codeLine="196" d="M1633.74,160.6769 C1690.71,187.0469 1769.65,225.4969 1835.93,264.8169 C1866.11,282.7269 1893.4303,301.4479 1919.4203,320.2679" fill="none" id="AndroidApp-to-ApplicationAPI" style="stroke:#181818;stroke-width:1;"/><polygon fill="#181818" points="1924.28,323.7869,1919.3365,315.2686,1920.2303,320.8544,1914.6445,321.7481,1924.28,323.7869" style="stroke:#181818;stroke-width:1;"/></g><!--link AndroidApp to BookingAPI--><g class="link" data-entity-1="AndroidApp" data-entity-2="BookingAPI" data-source-line="197" data-uid="lnk42" id="link_AndroidApp_BookingAPI"><path codeLine="197" d="M1479.94,167.7369 C1434.3,193.5369 1376.13,228.6169 1327.93,264.8169 C1307.53,280.1369 1290.9352,294.6004 1273.0352,311.4804" fill="none" id="AndroidApp-to-BookingAPI" style="stroke:#181818;stroke-width:1;"/><polygon fill="#181818" points="1268.67,315.5969,1277.9621,312.3323,1272.3077,312.1665,1272.4735,306.5121,1268.67,315.5969" style="stroke:#181818;stroke-width:1;"/></g><!--link AndroidApp to MessagingAPI--><g class="link" data-entity-1="AndroidApp" data-entity-2="MessagingAPI" data-source-line="198" data-uid="lnk43" id="link_AndroidApp_MessagingAPI"><path codeLine="198" d="M1531.22,190.4869 C1514.18,232.9969 1494.612,281.8575 1480.052,318.1875" fill="none" id="AndroidApp-to-MessagingAPI" style="stroke:#181818;stroke-width:1;"/><polygon fill="#181818" points="1477.82,323.7569,1484.881,316.8908,1479.68,319.1157,1477.4551,313.9148,1477.82,323.7569" style="stroke:#181818;stroke-width:1;"/></g><!--link AuthAPI to AuthenticationService--><g class="link" data-entity-1="AuthAPI" data-entity-2="AuthenticationService" data-source-line="200" data-uid="lnk44" id="link_AuthAPI_AuthenticationService"><path codeLine="200" d="M908.43,383.3669 C781.41,408.0769 548.89,455.3569 352.93,506.4469 C343.66,508.8669 339.9262,509.8233 330.3562,512.5133" fill="none" id="AuthAPI-to-AuthenticationService" style="stroke:#181818;stroke-width:1;"/><polygon fill="#181818" points="324.58,514.1369,334.3266,515.5522,329.3935,512.7839,332.1618,507.8507,324.58,514.1369" style="stroke:#181818;stroke-width:1;"/></g><!--link ProfileAPI to UserService--><g class="link" data-entity-1="ProfileAPI" data-entity-2="UserService" data-source-line="201" data-uid="lnk45" id="link_ProfileAPI_UserService"><path codeLine="201" d="M1703.76,413.2669 C1695.26,446.6869 1685.5287,484.9619 1677.5187,516.4619" fill="none" id="ProfileAPI-to-UserService" style="stroke:#181818;stroke-width:1;"/><polygon fill="#181818" points="1676.04,522.2769,1682.1346,514.5402,1677.2722,517.4311,1674.3814,512.5687,1676.04,522.2769" style="stroke:#181818;stroke-width:1;"/></g><!--link ProfileAPI to ProfileService--><g class="link" data-entity-1="ProfileAPI" data-entity-2="ProfileService" data-source-line="202" data-uid="lnk46" id="link_ProfileAPI_ProfileService"><path codeLine="202" d="M1786.7,413.2569 C1802.81,423.9669 1819.9,435.1969 1835.93,445.4469 C1876.84,471.6369 1918.1696,497.0557 1954.9096,519.3357" fill="none" id="ProfileAPI-to-ProfileService" style="stroke:#181818;stroke-width:1;"/><polygon fill="#181818" points="1960.04,522.4469,1954.4186,514.3599,1955.7647,519.8542,1950.2703,521.2004,1960.04,522.4469" style="stroke:#181818;stroke-width:1;"/></g><!--link CastingAPI to CastingService--><g class="link" data-entity-1="CastingAPI" data-entity-2="CastingService" data-source-line="203" data-uid="lnk47" id="link_CastingAPI_CastingService"><path codeLine="203" d="M2259.15,413.2969 C2273.38,425.5469 2289.83,437.4869 2306.93,445.4469 C2455.64,514.6769 2510.33,473.0269 2670.93,506.4469 C2682.45,508.8469 2688.4274,510.115 2700.3374,512.805" fill="none" id="CastingAPI-to-CastingService" style="stroke:#181818;stroke-width:1;"/><polygon fill="#181818" points="2706.19,514.1269,2698.2924,508.2424,2701.3129,513.0253,2696.5299,516.0458,2706.19,514.1269" style="stroke:#181818;stroke-width:1;"/></g><!--link ApplicationAPI to ApplicationService--><g class="link" data-entity-1="ApplicationAPI" data-entity-2="ApplicationService" data-source-line="204" data-uid="lnk48" id="link_ApplicationAPI_ApplicationService"><path codeLine="204" d="M2041.32,405.1069 C2064.94,418.8269 2092.2,433.6869 2117.93,445.4469 C2182.23,474.8569 2250.579,499.8362 2312.019,520.3562" fill="none" id="ApplicationAPI-to-ApplicationService" style="stroke:#181818;stroke-width:1;"/><polygon fill="#181818" points="2317.71,522.2569,2310.4407,515.6118,2312.9675,520.673,2307.9064,523.1998,2317.71,522.2569" style="stroke:#181818;stroke-width:1;"/></g><!--link BookingAPI to BookingService--><g class="link" data-entity-1="BookingAPI" data-entity-2="BookingService" data-source-line="205" data-uid="lnk49" id="link_BookingAPI_BookingService"><path codeLine="205" d="M1166.56,413.3369 C1150.76,425.2869 1132.9,437.0769 1114.93,445.4469 C1100.88,451.9969 962.2369,483.6243 830.9369,512.8243" fill="none" id="BookingAPI-to-BookingService" style="stroke:#181818;stroke-width:1;"/><polygon fill="#181818" points="825.08,514.1269,834.7337,516.0777,829.9608,513.0414,832.997,508.2685,825.08,514.1269" style="stroke:#181818;stroke-width:1;"/></g><!--link MessagingAPI to MessagingService--><g class="link" data-entity-1="MessagingAPI" data-entity-2="MessagingService" data-source-line="206" data-uid="lnk50" id="link_MessagingAPI_MessagingService"><path codeLine="206" d="M1432.99,405.2069 C1408.18,439.3169 1376.149,483.3645 1351.349,517.4645" fill="none" id="MessagingAPI-to-MessagingService" style="stroke:#181818;stroke-width:1;"/><polygon fill="#181818" points="1347.82,522.3169,1356.3485,517.3909,1350.7609,518.2732,1349.8786,512.6856,1347.82,522.3169" style="stroke:#181818;stroke-width:1;"/></g><!--link AdminAPI to AdminService--><g class="link" data-entity-1="AdminAPI" data-entity-2="AdminService" data-source-line="207" data-uid="lnk51" id="link_AdminAPI_AdminService"><path codeLine="207" d="M2544.22,413.2969 C2569.56,425.5469 2597.78,437.4969 2624.93,445.4469 C2836.37,507.4369 2901.03,462.4169 3116.93,506.4469 C3128.08,508.7269 3133.7106,509.8963 3145.2006,512.6963" fill="none" id="AdminAPI-to-AdminService" style="stroke:#181818;stroke-width:1;"/><polygon fill="#181818" points="3151.03,514.1169,3143.2329,508.0998,3146.1722,512.9331,3141.3388,515.8723,3151.03,514.1169" style="stroke:#181818;stroke-width:1;"/></g><!--link AuthenticationService to SSOProvider--><g class="link" data-entity-1="AuthenticationService" data-entity-2="SSOProvider" data-source-line="210" data-uid="lnk52" id="link_AuthenticationService_SSOProvider"><path codeLine="210" d="M170.93,611.7669 C170.93,649.4769 170.93,695.4969 170.93,730.9569" fill="none" id="AuthenticationService-to-SSOProvider" style="stroke:#181818;stroke-width:1;"/><polygon fill="#181818" points="170.93,736.9569,174.93,727.9569,170.93,731.9569,166.93,727.9569,170.93,736.9569" style="stroke:#181818;stroke-width:1;"/></g><!--link AuthenticationService to Database--><g class="link" data-entity-1="AuthenticationService" data-entity-2="Database" data-source-line="211" data-uid="lnk53" id="link_AuthenticationService_Database"><path codeLine="211" d="M321.4,611.9869 C332.02,614.7569 342.61,617.3469 352.93,619.6369 C559.5,665.4969 1209.6236,745.8946 1403.5136,769.4046" fill="none" id="AuthenticationService-to-Database" style="stroke:#181818;stroke-width:1;"/><polygon fill="#181818" points="1409.47,770.1269,1401.0169,765.0726,1404.5064,769.525,1400.054,773.0144,1409.47,770.1269" style="stroke:#181818;stroke-width:1;"/></g><!--link UserService to Database--><g class="link" data-entity-1="UserService" data-entity-2="Database" data-source-line="212" data-uid="lnk54" id="link_UserService_Database"><path codeLine="212" d="M1628.41,603.5369 C1597.49,636.0869 1557.3527,678.3371 1522.5227,714.9971" fill="none" id="UserService-to-Database" style="stroke:#181818;stroke-width:1;"/><polygon fill="#181818" points="1518.39,719.3469,1527.4889,715.5773,1521.8339,715.722,1521.6891,710.067,1518.39,719.3469" style="stroke:#181818;stroke-width:1;"/></g><!--link ProfileService to Database--><g class="link" data-entity-1="ProfileService" data-entity-2="Database" data-source-line="213" data-uid="lnk55" id="link_ProfileService_Database"><path codeLine="213" d="M1920.88,603.7869 C1801.42,648.9869 1616.5917,718.9136 1523.8517,754.0036" fill="none" id="ProfileService-to-Database" style="stroke:#181818;stroke-width:1;"/><polygon fill="#181818" points="1518.24,756.1269,1528.0731,756.6831,1522.9164,754.3575,1525.2421,749.2008,1518.24,756.1269" style="stroke:#181818;stroke-width:1;"/></g><!--link ProfileService to ObjectStorage--><g class="link" data-entity-1="ProfileService" data-entity-2="ObjectStorage" data-source-line="214" data-uid="lnk56" id="link_ProfileService_ObjectStorage"><path codeLine="214" d="M2025.93,603.5369 C2025.93,641.6169 2025.93,692.9069 2025.93,731.0369" fill="none" id="ProfileService-to-ObjectStorage" style="stroke:#181818;stroke-width:1;"/><polygon fill="#181818" points="2025.93,737.0369,2029.93,728.0369,2025.93,732.0369,2021.93,728.0369,2025.93,737.0369" style="stroke:#181818;stroke-width:1;"/></g><!--link CastingService to Database--><g class="link" data-entity-1="CastingService" data-entity-2="Database" data-source-line="215" data-uid="lnk57" id="link_CastingService_Database"><path codeLine="215" d="M2710.3,611.9569 C2697.02,614.7669 2683.8,617.3669 2670.93,619.6369 C2350.09,676.2969 2264.74,652.6069 1941.93,696.6369 C1787.69,717.6769 1612.6499,749.0157 1524.1399,765.3857" fill="none" id="CastingService-to-Database" style="stroke:#181818;stroke-width:1;"/><polygon fill="#181818" points="1518.24,766.4769,1527.8174,768.7734,1523.1566,765.5675,1526.3624,760.9068,1518.24,766.4769" style="stroke:#181818;stroke-width:1;"/></g><!--link CastingService to MapsService--><g class="link" data-entity-1="CastingService" data-entity-2="MapsService" data-source-line="216" data-uid="lnk58" id="link_CastingService_MapsService"><path codeLine="216" d="M2893.93,611.7669 C2893.93,652.5369 2893.93,704.0369 2893.93,739.2569" fill="none" id="CastingService-to-MapsService" style="stroke:#181818;stroke-width:1;"/><polygon fill="#181818" points="2893.93,745.2569,2897.93,736.2569,2893.93,740.2569,2889.93,736.2569,2893.93,745.2569" style="stroke:#181818;stroke-width:1;"/></g><!--link ApplicationService to Database--><g class="link" data-entity-1="ApplicationService" data-entity-2="Database" data-source-line="217" data-uid="lnk59" id="link_ApplicationService_Database"><path codeLine="217" d="M2289.15,603.7769 C2266.63,609.2469 2243.71,614.6769 2221.93,619.6369 C1959.19,679.4369 1648.9295,740.7509 1524.1995,765.0209" fill="none" id="ApplicationService-to-Database" style="stroke:#181818;stroke-width:1;"/><polygon fill="#181818" points="1518.31,766.1669,1527.9083,768.3743,1523.218,765.2119,1526.3803,760.5215,1518.31,766.1669" style="stroke:#181818;stroke-width:1;"/></g><!--link BookingService to Database--><g class="link" data-entity-1="BookingService" data-entity-2="Database" data-source-line="218" data-uid="lnk60" id="link_BookingService_Database"><path codeLine="218" d="M800.06,611.9669 C996.77,660.7669 1283.6065,731.9423 1403.6965,761.7323" fill="none" id="BookingService-to-Database" style="stroke:#181818;stroke-width:1;"/><polygon fill="#181818" points="1409.52,763.1769,1401.7478,757.1276,1404.6671,761.973,1399.8217,764.8923,1409.52,763.1769" style="stroke:#181818;stroke-width:1;"/></g><!--link BookingService to PaymentGateway--><g class="link" data-entity-1="BookingService" data-entity-2="PaymentGateway" data-source-line="219" data-uid="lnk61" id="link_BookingService_PaymentGateway"><path codeLine="219" d="M606.93,611.7669 C606.93,649.4769 606.93,695.4969 606.93,730.9569" fill="none" id="BookingService-to-PaymentGateway" style="stroke:#181818;stroke-width:1;"/><polygon fill="#181818" points="606.93,736.9569,610.93,727.9569,606.93,731.9569,602.93,727.9569,606.93,736.9569" style="stroke:#181818;stroke-width:1;"/></g><!--link MessagingService to Database--><g class="link" data-entity-1="MessagingService" data-entity-2="Database" data-source-line="220" data-uid="lnk62" id="link_MessagingService_Database"><path codeLine="220" d="M1345.86,603.5369 C1364.37,630.6869 1386.1593,662.64 1408.5093,695.41" fill="none" id="MessagingService-to-Database" style="stroke:#181818;stroke-width:1;"/><polygon fill="#181818" points="1411.89,700.3669,1410.1235,690.6777,1409.0727,696.2361,1403.5143,695.1854,1411.89,700.3669" style="stroke:#181818;stroke-width:1;"/></g><!--link AdminService to ModerationAPI--><g class="link" data-entity-1="AdminService" data-entity-2="ModerationAPI" data-source-line="221" data-uid="lnk63" id="link_AdminService_ModerationAPI"><path codeLine="221" d="M3375.11,611.7669 C3425.84,649.4769 3490.9844,697.9177 3538.6944,733.3777" fill="none" id="AdminService-to-ModerationAPI" style="stroke:#181818;stroke-width:1;"/><polygon fill="#181818" points="3543.51,736.9569,3538.6727,728.3778,3539.497,733.9743,3533.9005,734.7986,3543.51,736.9569" style="stroke:#181818;stroke-width:1;"/></g><!--link AdminService to KYCService--><g class="link" data-entity-1="AdminService" data-entity-2="KYCService" data-source-line="222" data-uid="lnk64" id="link_AdminService_KYCService"><path codeLine="222" d="M3302.4,611.7669 C3295.11,652.5369 3285.8965,704.1306 3279.5965,739.3506" fill="none" id="AdminService-to-KYCService" style="stroke:#181818;stroke-width:1;"/><polygon fill="#181818" points="3278.54,745.2569,3284.0622,737.1018,3279.4204,740.335,3276.1872,735.6932,3278.54,745.2569" style="stroke:#181818;stroke-width:1;"/></g><!--link NotificationService to PushProvider--><g class="link" data-entity-1="NotificationService" data-entity-2="PushProvider" data-source-line="223" data-uid="lnk65" id="link_NotificationService_PushProvider"><path codeLine="223" d="M2906.81,166.0169 C2874.93,212.6769 2826.0347,284.2227 2796.8147,326.9927" fill="none" id="NotificationService-to-PushProvider" style="stroke:#181818;stroke-width:1;"/><polygon fill="#181818" points="2793.43,331.9469,2801.8098,326.772,2796.2505,327.8184,2795.2042,322.2591,2793.43,331.9469" style="stroke:#181818;stroke-width:1;"/></g><!--link NotificationService to EmailProvider--><g class="link" data-entity-1="NotificationService" data-entity-2="EmailProvider" data-source-line="224" data-uid="lnk66" id="link_NotificationService_EmailProvider"><path codeLine="224" d="M2961.21,166.0169 C2993.29,212.6769 3042.4904,284.2329 3071.9004,327.0029" fill="none" id="NotificationService-to-EmailProvider" style="stroke:#181818;stroke-width:1;"/><polygon fill="#181818" points="3075.3,331.9469,3073.4965,322.2645,3072.467,327.8269,3066.9046,326.7974,3075.3,331.9469" style="stroke:#181818;stroke-width:1;"/></g><!--link AnalyticsService to Database--><g class="link" data-entity-1="AnalyticsService" data-entity-2="Database" data-source-line="225" data-uid="lnk67" id="link_AnalyticsService_Database"><path codeLine="225" d="M1068.04,595.6469 C1161.02,638.1669 1319.0233,710.422 1403.8833,749.222" fill="none" id="AnalyticsService-to-Database" style="stroke:#181818;stroke-width:1;"/><polygon fill="#181818" points="1409.34,751.7169,1402.8183,744.3367,1404.7928,749.6378,1399.4917,751.6123,1409.34,751.7169" style="stroke:#181818;stroke-width:1;"/></g><!--link User to ModelProfile--><g class="link" data-entity-1="User" data-entity-2="ModelProfile" data-source-line="228" data-uid="lnk68" id="link_User_ModelProfile"><path codeLine="228" d="M3503.93,206.5969 C3503.93,236.8269 3503.93,270.7669 3503.93,299.3269" fill="none" id="User-ModelProfile" style="stroke:#181818;stroke-width:1;"/><polygon fill="#000000" points="3508.93,249.9433,3511.8689,240.8982,3505.9911,240.8982,3508.93,249.9433" style="stroke:#000000;stroke-width:1;"/><text fill="#000000" font-family="sans-serif" font-size="13" lengthAdjust="spacing" textLength="22.9785" x="3517.93" y="249.4438">has</text><text fill="#000000" font-family="sans-serif" font-size="13" lengthAdjust="spacing" textLength="8.271" x="3495.5858" y="226.575">1</text><text fill="#000000" font-family="sans-serif" font-size="13" lengthAdjust="spacing" textLength="24.8066" x="3478.6619" y="288.4624">0..1</text></g><!--link Agency to CastingCall--><g class="link" data-entity-1="Agency" data-entity-2="CastingCall" data-source-line="229" data-uid="lnk69" id="link_Agency_CastingCall"><path codeLine="229" d="M3823.93,174.0269 C3823.93,205.2569 3823.93,246.8569 3823.93,283.1169" fill="none" id="Agency-CastingCall" style="stroke:#181818;stroke-width:1;"/><polygon fill="#000000" points="3828.93,249.9433,3831.8689,240.8982,3825.9911,240.8982,3828.93,249.9433" style="stroke:#000000;stroke-width:1;"/><text fill="#000000" font-family="sans-serif" font-size="13" lengthAdjust="spacing" textLength="34.8486" x="3837.93" y="249.4438">posts</text><text fill="#000000" font-family="sans-serif" font-size="13" lengthAdjust="spacing" textLength="8.271" x="3815.3876" y="194.0055">1</text><text fill="#000000" font-family="sans-serif" font-size="13" lengthAdjust="spacing" textLength="23.0356" x="3799.9074" y="272.281">0..*</text></g><!--link CastingCall to Application--><g class="link" data-entity-1="CastingCall" data-entity-2="Application" data-source-line="230" data-uid="lnk70" id="link_CastingCall_Application"><path codeLine="230" d="M3823.93,445.6769 C3823.93,465.9569 3823.93,487.2969 3823.93,506.0969" fill="none" id="CastingCall-Application" style="stroke:#181818;stroke-width:1;"/><text fill="#000000" font-family="sans-serif" font-size="13" lengthAdjust="spacing" textLength="8.271" x="3815.5858" y="465.655">1</text><text fill="#000000" font-family="sans-serif" font-size="13" lengthAdjust="spacing" textLength="23.0356" x="3799.5308" y="495.3178">0..*</text></g><!--link Application to Booking--><g class="link" data-entity-1="Application" data-entity-2="Booking" data-source-line="231" data-uid="lnk71" id="link_Application_Booking"><path codeLine="231" d="M3823.93,619.9069 C3823.93,643.2869 3823.93,670.9069 3823.93,696.3969" fill="none" id="Application-Booking" style="stroke:#181818;stroke-width:1;"/><polygon fill="#000000" points="3828.93,663.2033,3831.8689,654.1582,3825.9911,654.1582,3828.93,663.2033" style="stroke:#000000;stroke-width:1;"/><text fill="#000000" font-family="sans-serif" font-size="13" lengthAdjust="spacing" textLength="59.8203" x="3837.93" y="662.7038">results in</text><text fill="#000000" font-family="sans-serif" font-size="13" lengthAdjust="spacing" textLength="24.8066" x="3798.5168" y="639.8265">0..1</text><text fill="#000000" font-family="sans-serif" font-size="13" lengthAdjust="spacing" textLength="24.8066" x="3798.8973" y="685.5628">0..1</text></g><!--SRC=[bLTRRzis57xNho3oKhb9wkvLo0AuTj1womsrCs2FjCHON2HH8AcuQb2WFsJxS_qbExoAb9mLoqDWyLnvBX_F4K-qQJ77DSehBCH2IavtdIJhd3KR-fMWzucaiYBe3y85bbJzeeAoHg1pj5GYvqBsSFfmSuqEL9PeSRz6f-ZgYoIymHNQz4AIMYJ96_Ih-WCXIXffFX9j52sQWZDQBDeMlIG8dUuuEmYon4BIPf_ErD4p9OSRLf3gdhD7yCASuhQj-YsBEFCIIqlDSzBA3umz6UAtmOdFLvkjzhJ2FU7e2VWGRKmCaBcGSR35-HFU4tJY9T8bQoHdLGK1cPreX-qjEbag1dK2rk_lG61UiJrjKb9ZMfsrXs8MqWJTDrsRTeBmrVOk9Waspt5LxS1yEXifP9svu3TlsWObiFxn2dYLPZ5_eSKtg-413bl36vrhpH5XNfE2uiY8ZVBOI6wEHQWgFelOdDb1BwIzeZdK5cicuSC3pHbOR9UVOe9nM4WiEn5fjgcVQDsPyrYZEvp61VSrL6oi-eO8WVT7mY5BJd0nrHAUGt2LD8bLBegQDcDrM1t6jsr9Ku3XA4oQwvbm-jZhBfc_gDolOnSCLmrqZYMPly2bgEpNDXr1Tsm8VwOv4IZjMSTDFsJen_U_trhAZ-__6AU1HpTzJMJ92Z6BsneQGjamZbjHq-51MsGRW9ncVuPQa3amNjY3MOQsx8aqYZti5291I6JejytTBV0OPiMq9tBPSGuM7u0lbKfuqANEu8x6C_KH-GEoMeWMsSF3UkNuWTAr1GHhGwIkNiTmXeGzoMvmE_EARID6keq6XricBrQ9RRaiHBQPaQaOBcvK3yOIXbsTAny_NtlBjZlZA5CXxRb8GH8WMRkReMkWN5ZI4d3cKYCdLAZqi9jhdFQ6RVzcWP3o06WkzbPk2670wjqCcZroLNIxcig0cgewhSRcrqD-h6N8mqPtVWfDujaD6BZiU-iM42BBvjRkbOZjdA7O2mXWBMm8fmvO17dD2U2b3PLK5OE1b8a4hbdNo6n5SbhZQl3ReysuQBSQLOAOwyGQTgAJsZ8XxNTgC6YuczXdbZIOqYWKcU54FRvXQi985-2hcWV2QmP055QlfZduIHtwkAldCjJYtBbbaZuUBHX0mVjEb75xw5d58ygE5NtebvAvKfWpGXuelhz8BlrtAUjguia2ffaUm4n4RaYkNcZo3BSPW8oprkE21zKL0vkDXysqeay4QNnbd49k8TyHUYe0CZOWkxxQ6boJ4FJCHOA3jcHDn06ZYlz6w0swkLjTNP-XvVNwwdPxXXQhc_MjubCWTVVuWN9PPcW57rgRnUHFM9HUgQ_A0BMCfoMX-r9cwBQhTmO-3nWACZmeASGc-6uPbu-iecnTgnVHLp0WtAMl9LS0fg76VYpsfCdx8LR3tSVHWg5MGg6jcqSsqHAWrJ5LfhA2WuA8dDDMLsrmN37ZQyGAqHnYkkiAw5puDbsk2_ELYmqzTymbM_dX_OOxn8HN35ZKEwPy0CBWqA5XoEUUYTUjgI8q4HXkh381hICVU3MjAuD9HxFW42oq1bqz2GIeLoqPiyc5D6dOqfe4vg3Mx5FDerwIVKi2xtmh- -Lc3al38uT8yIwN7ISe5IKxD0WBt-UIeHhBl4J3A1NtEVY3TrWGT75Hs9-NbzOTDR_h9h6ZUP0OuVQVO3m-3GRRKpzZkdlUQP3RICPzS5lO9FJCOMO9ywQa40KusFKo4Dvixg3JdsdXG0d3S0V0zTLkOdhQIeD12A0v5b1fYeOoDV7rQip9z2ZdHJL27vNzVu1j7zcFaEy3xiF7VbcI_4bjKSFxwpIDNs05OMHN0bzmkT__N4QFW7dlrYlt5Zbb1SjLVViP5Dgj8hWPAW-tOlIYinnQBCL5mI5zW-H7mkuPRMI4lJpQcKv5ZXiDeYg1W-XdeY3MCMp95vbA-3TX2BTZKfcQKc0DDGqeYZ27fHmz0xhjkWhpNjMuBcbedZt7jIlgO9S_FxzqI_7uU5XOnvHXovoeYlR4CNNOzSQKS5LB4hUbE-Sc2qeIBDEAATWLngHusa-21JcuYQEErjpHZHnNiB86jtBKQEkCxkQjk2LIwmzcEPLTlzTT077rORvMu9KSNzEKVD3q_y7b02m9jwg8CDgAVaQBW2ePBJQHy15Qq5F9aMKZ4X-j0p-ZnO2IJ8RoI3wQexLZOSTEoGEc9CTcNcq_mDHNcIBqJ2P3Q-GZb8ITIhdhU9r4TFBB2N2Ya_Vlti6lQCxBK0cTVvdOeIlWV7iIpL0PKgk7OWrFO_uWGM6odE711JUePE2fw2fG2qvV_Wi0]--></g></svg>